<svg width="671" height="316" viewBox="0 0 671 316" fill="none" xmlns="http://www.w3.org/2000/svg">
<path d="M113.003 20.0693H110.524V25H108.301V12.2031H112.801C114.277 12.2031 115.417 12.5342 116.22 13.1963C117.022 13.8584 117.424 14.8164 117.424 16.0703C117.424 16.9258 117.216 17.6436 116.8 18.2236C116.39 18.7979 115.815 19.2402 115.077 19.5508L117.951 24.8857V25H115.569L113.003 20.0693ZM110.524 18.2852H112.81C113.56 18.2852 114.146 18.0977 114.567 17.7227C114.989 17.3418 115.2 16.8232 115.2 16.167C115.2 15.4814 115.004 14.9512 114.611 14.5762C114.225 14.2012 113.645 14.0078 112.871 13.9961H110.524V18.2852ZM118.927 20.1572C118.927 19.2256 119.111 18.3877 119.48 17.6436C119.85 16.8936 120.368 16.3193 121.036 15.9209C121.704 15.5166 122.472 15.3145 123.339 15.3145C124.622 15.3145 125.662 15.7275 126.459 16.5537C127.262 17.3799 127.695 18.4756 127.76 19.8408L127.769 20.3418C127.769 21.2793 127.587 22.1172 127.224 22.8555C126.866 23.5938 126.351 24.165 125.677 24.5693C125.009 24.9736 124.235 25.1758 123.356 25.1758C122.015 25.1758 120.939 24.7305 120.131 23.8398C119.328 22.9434 118.927 21.751 118.927 20.2627V20.1572ZM121.062 20.3418C121.062 21.3203 121.265 22.0879 121.669 22.6445C122.073 23.1953 122.636 23.4707 123.356 23.4707C124.077 23.4707 124.637 23.1895 125.035 22.627C125.439 22.0645 125.642 21.2412 125.642 20.1572C125.642 19.1963 125.434 18.4346 125.018 17.8721C124.607 17.3096 124.048 17.0283 123.339 17.0283C122.642 17.0283 122.088 17.3066 121.678 17.8633C121.268 18.4141 121.062 19.2402 121.062 20.3418ZM131.847 25H129.711V11.5H131.847V25ZM138.368 25.1758C137.015 25.1758 135.916 24.751 135.072 23.9014C134.234 23.0459 133.815 21.9092 133.815 20.4912V20.2275C133.815 19.2783 133.997 18.4316 134.36 17.6875C134.729 16.9375 135.245 16.3545 135.907 15.9385C136.569 15.5225 137.308 15.3145 138.122 15.3145C139.417 15.3145 140.416 15.7275 141.119 16.5537C141.828 17.3799 142.183 18.5488 142.183 20.0605V20.9219H135.969C136.033 21.707 136.294 22.3281 136.751 22.7852C137.214 23.2422 137.794 23.4707 138.491 23.4707C139.47 23.4707 140.267 23.0752 140.882 22.2842L142.033 23.3828C141.652 23.9512 141.143 24.3936 140.504 24.71C139.871 25.0205 139.159 25.1758 138.368 25.1758ZM138.113 17.0283C137.527 17.0283 137.053 17.2334 136.689 17.6436C136.332 18.0537 136.104 18.625 136.004 19.3574H140.073V19.1992C140.026 18.4844 139.836 17.9453 139.502 17.582C139.168 17.2129 138.705 17.0283 138.113 17.0283Z" fill="#EDEDED"/>
<path d="M7.9917 77.9912C7.8986 78.9772 7.53467 79.7474 6.8999 80.3018C6.26514 80.8519 5.4209 81.127 4.36719 81.127C3.63086 81.127 2.98128 80.9535 2.41846 80.6064C1.85986 80.2552 1.42822 79.758 1.12354 79.1147C0.818848 78.4715 0.660156 77.7246 0.647461 76.874V76.0107C0.647461 75.139 0.801921 74.3709 1.11084 73.7065C1.41976 73.0422 1.86198 72.5301 2.4375 72.1704C3.01725 71.8107 3.68587 71.6309 4.44336 71.6309C5.46322 71.6309 6.28418 71.908 6.90625 72.4624C7.52832 73.0168 7.89014 73.7996 7.9917 74.811H6.39209C6.31592 74.1466 6.12126 73.6685 5.80811 73.3765C5.49919 73.0802 5.04427 72.9321 4.44336 72.9321C3.74512 72.9321 3.20768 73.1882 2.83105 73.7002C2.45866 74.208 2.26823 74.9549 2.25977 75.9409V76.7598C2.25977 77.7585 2.4375 78.5202 2.79297 79.0449C3.15267 79.5697 3.67741 79.832 4.36719 79.832C4.99772 79.832 5.47168 79.6903 5.78906 79.4067C6.10645 79.1232 6.30745 78.6514 6.39209 77.9912H7.9917ZM8.99463 77.5024C8.99463 76.8296 9.12793 76.2244 9.39453 75.687C9.66113 75.1453 10.0356 74.7306 10.5181 74.4429C11.0005 74.1509 11.5549 74.0049 12.1812 74.0049C13.1079 74.0049 13.859 74.3032 14.4346 74.8999C15.0143 75.4966 15.3275 76.2879 15.374 77.2739L15.3804 77.6357C15.3804 78.3128 15.2492 78.918 14.9868 79.4512C14.7287 79.9844 14.3563 80.397 13.8696 80.689C13.3872 80.981 12.8286 81.127 12.1938 81.127C11.2248 81.127 10.4482 80.8053 9.86426 80.1621C9.28451 79.5146 8.99463 78.6535 8.99463 77.5786V77.5024ZM10.5371 77.6357C10.5371 78.3424 10.6831 78.8968 10.9751 79.2988C11.2671 79.6966 11.6733 79.8955 12.1938 79.8955C12.7144 79.8955 13.1185 79.6924 13.4062 79.2861C13.6982 78.8799 13.8442 78.2853 13.8442 77.5024C13.8442 76.8084 13.694 76.2583 13.3936 75.8521C13.0973 75.4458 12.6932 75.2427 12.1812 75.2427C11.6776 75.2427 11.2777 75.4437 10.9814 75.8457C10.6852 76.2435 10.5371 76.8402 10.5371 77.6357ZM18.1353 74.1318L18.1797 74.8491C18.6621 74.2863 19.3223 74.0049 20.1602 74.0049C21.0785 74.0049 21.7069 74.3561 22.0454 75.0586C22.5448 74.3561 23.2472 74.0049 24.1528 74.0049C24.9103 74.0049 25.4731 74.2144 25.8413 74.6333C26.2137 75.0522 26.4041 75.6701 26.4126 76.4868V81H24.8701V76.5312C24.8701 76.0954 24.7749 75.7759 24.5845 75.5728C24.394 75.3696 24.0788 75.2681 23.6387 75.2681C23.2874 75.2681 22.9997 75.3633 22.7754 75.5537C22.5553 75.7399 22.4009 75.9854 22.312 76.29L22.3184 81H20.7759V76.4805C20.7547 75.6722 20.3421 75.2681 19.5381 75.2681C18.9202 75.2681 18.4823 75.5199 18.2241 76.0234V81H16.6816V74.1318H18.1353ZM34.0107 77.6357C34.0107 78.6979 33.7695 79.5464 33.2871 80.1812C32.8047 80.8117 32.1572 81.127 31.3447 81.127C30.5915 81.127 29.9884 80.8794 29.5356 80.3843V83.6406H27.9932V74.1318H29.415L29.4785 74.8301C29.9313 74.2799 30.547 74.0049 31.3257 74.0049C32.1636 74.0049 32.8195 74.318 33.2935 74.9443C33.7716 75.5664 34.0107 76.4318 34.0107 77.5405V77.6357ZM32.4746 77.5024C32.4746 76.8169 32.3371 76.2731 32.062 75.8711C31.7912 75.4691 31.4019 75.2681 30.894 75.2681C30.2635 75.2681 29.8107 75.5283 29.5356 76.0488V79.0957C29.8149 79.6289 30.272 79.8955 30.9067 79.8955C31.3976 79.8955 31.7806 79.6987 32.0557 79.3052C32.335 78.9074 32.4746 78.3065 32.4746 77.5024ZM39.4253 81C39.3576 80.8688 39.2983 80.6551 39.2476 80.3589C38.7567 80.8709 38.1558 81.127 37.4448 81.127C36.755 81.127 36.1922 80.9302 35.7563 80.5366C35.3205 80.1431 35.1025 79.6564 35.1025 79.0767C35.1025 78.3446 35.3734 77.7839 35.915 77.3945C36.4609 77.001 37.2396 76.8042 38.251 76.8042H39.1968V76.3535C39.1968 75.998 39.0973 75.7145 38.8984 75.5029C38.6995 75.2871 38.397 75.1792 37.9907 75.1792C37.6395 75.1792 37.3517 75.2681 37.1274 75.4458C36.9032 75.6193 36.791 75.8415 36.791 76.1123H35.2485C35.2485 75.7357 35.3734 75.3844 35.623 75.0586C35.8727 74.7285 36.2113 74.4704 36.6387 74.2842C37.0703 74.098 37.5506 74.0049 38.0796 74.0049C38.8836 74.0049 39.5247 74.208 40.0029 74.6143C40.4811 75.0163 40.7266 75.5833 40.7393 76.3154V79.4131C40.7393 80.0309 40.826 80.5239 40.9995 80.8921V81H39.4253ZM37.7305 79.8892C38.0352 79.8892 38.3208 79.8151 38.5874 79.667C38.8582 79.5189 39.0614 79.32 39.1968 79.0703V77.7754H38.3652C37.7939 77.7754 37.3644 77.8748 37.0767 78.0737C36.7889 78.2726 36.645 78.554 36.645 78.918C36.645 79.2142 36.7424 79.4512 36.937 79.6289C37.1359 79.8024 37.4004 79.8892 37.7305 79.8892ZM43.7861 74.1318L43.8306 74.9253C44.3384 74.3117 45.0049 74.0049 45.8301 74.0049C47.2604 74.0049 47.9883 74.8237 48.0137 76.4614V81H46.4712V76.5503C46.4712 76.1144 46.376 75.7928 46.1855 75.5854C45.9993 75.3739 45.6925 75.2681 45.2651 75.2681C44.6431 75.2681 44.1797 75.5495 43.875 76.1123V81H42.3325V74.1318H43.7861ZM51.9937 78.791L53.3901 74.1318H55.0342L52.3047 82.041C51.8857 83.1963 51.1748 83.7739 50.1719 83.7739C49.9476 83.7739 49.7 83.7358 49.4292 83.6597V82.4663L49.7212 82.4854C50.1105 82.4854 50.4025 82.4134 50.5972 82.2695C50.7961 82.1299 50.9526 81.8929 51.0669 81.5586L51.2891 80.9683L48.877 74.1318H50.54L51.9937 78.791Z" fill="#EDEDED"/>
<path d="M614.113 73.8481H610.533L609.784 76H608.114L611.605 66.7578H613.046L616.544 76H614.868L614.113 73.8481ZM610.983 72.5532H613.662L612.323 68.7192L610.983 72.5532ZM617.16 72.5151C617.16 71.4572 617.405 70.6087 617.896 69.9697C618.387 69.3265 619.045 69.0049 619.87 69.0049C620.598 69.0049 621.186 69.2588 621.635 69.7666V66.25H623.177V76H621.781L621.705 75.2891C621.243 75.8477 620.628 76.127 619.857 76.127C619.053 76.127 618.402 75.8032 617.902 75.1558C617.407 74.5083 617.16 73.6281 617.16 72.5151ZM618.702 72.6484C618.702 73.3467 618.835 73.8926 619.102 74.2861C619.373 74.6755 619.756 74.8701 620.251 74.8701C620.882 74.8701 621.343 74.5887 621.635 74.0259V71.0933C621.351 70.5431 620.894 70.2681 620.264 70.2681C619.764 70.2681 619.379 70.467 619.108 70.8647C618.838 71.2583 618.702 71.8529 618.702 72.6484ZM624.498 72.5151C624.498 71.4572 624.743 70.6087 625.234 69.9697C625.725 69.3265 626.383 69.0049 627.208 69.0049C627.936 69.0049 628.524 69.2588 628.973 69.7666V66.25H630.515V76H629.119L629.042 75.2891C628.581 75.8477 627.965 76.127 627.195 76.127C626.391 76.127 625.74 75.8032 625.24 75.1558C624.745 74.5083 624.498 73.6281 624.498 72.5151ZM626.04 72.6484C626.04 73.3467 626.173 73.8926 626.44 74.2861C626.711 74.6755 627.094 74.8701 627.589 74.8701C628.219 74.8701 628.681 74.5887 628.973 74.0259V71.0933C628.689 70.5431 628.232 70.2681 627.602 70.2681C627.102 70.2681 626.717 70.467 626.446 70.8647C626.175 71.2583 626.04 71.8529 626.04 72.6484ZM637.294 67.4624V69.1318H638.507V70.2744H637.294V74.1084C637.294 74.3708 637.345 74.5612 637.447 74.6797C637.553 74.7939 637.739 74.8511 638.005 74.8511C638.183 74.8511 638.363 74.8299 638.545 74.7876V75.981C638.194 76.0783 637.855 76.127 637.529 76.127C636.344 76.127 635.752 75.4731 635.752 74.1655V70.2744H634.622V69.1318H635.752V67.4624H637.294ZM639.211 72.5024C639.211 71.8296 639.345 71.2244 639.611 70.687C639.878 70.1453 640.252 69.7306 640.735 69.4429C641.217 69.1509 641.772 69.0049 642.398 69.0049C643.325 69.0049 644.076 69.3032 644.651 69.8999C645.231 70.4966 645.544 71.2879 645.591 72.2739L645.597 72.6357C645.597 73.3128 645.466 73.918 645.204 74.4512C644.945 74.9844 644.573 75.397 644.086 75.689C643.604 75.981 643.045 76.127 642.411 76.127C641.442 76.127 640.665 75.8053 640.081 75.1621C639.501 74.5146 639.211 73.6535 639.211 72.5786V72.5024ZM640.754 72.6357C640.754 73.3424 640.9 73.8968 641.192 74.2988C641.484 74.6966 641.89 74.8955 642.411 74.8955C642.931 74.8955 643.335 74.6924 643.623 74.2861C643.915 73.8799 644.061 73.2853 644.061 72.5024C644.061 71.8084 643.911 71.2583 643.61 70.8521C643.314 70.4458 642.91 70.2427 642.398 70.2427C641.894 70.2427 641.494 70.4437 641.198 70.8457C640.902 71.2435 640.754 71.8402 640.754 72.6357ZM651.894 74.7178H656.09V76H650.288V66.7578H651.894V74.7178ZM658.813 76H657.271V69.1318H658.813V76ZM657.175 67.3481C657.175 67.1112 657.249 66.9144 657.397 66.7578C657.55 66.6012 657.766 66.5229 658.045 66.5229C658.324 66.5229 658.54 66.6012 658.692 66.7578C658.845 66.9144 658.921 67.1112 658.921 67.3481C658.921 67.5809 658.845 67.7756 658.692 67.9321C658.54 68.0845 658.324 68.1606 658.045 68.1606C657.766 68.1606 657.55 68.0845 657.397 67.9321C657.249 67.7756 657.175 67.5809 657.175 67.3481ZM664.348 74.1338C664.348 73.8587 664.234 73.6493 664.005 73.5054C663.781 73.3615 663.407 73.2345 662.882 73.1245C662.357 73.0145 661.919 72.8748 661.568 72.7056C660.798 72.3332 660.413 71.7936 660.413 71.0869C660.413 70.4945 660.662 69.9993 661.162 69.6016C661.661 69.2038 662.296 69.0049 663.066 69.0049C663.887 69.0049 664.549 69.208 665.053 69.6143C665.561 70.0205 665.814 70.5474 665.814 71.1948H664.272C664.272 70.8986 664.162 70.6532 663.942 70.4585C663.722 70.2596 663.43 70.1602 663.066 70.1602C662.727 70.1602 662.45 70.2384 662.234 70.395C662.023 70.5516 661.917 70.7611 661.917 71.0234C661.917 71.2604 662.016 71.4445 662.215 71.5757C662.414 71.7069 662.816 71.8402 663.421 71.9756C664.027 72.1068 664.5 72.2655 664.843 72.4517C665.19 72.6336 665.446 72.8537 665.611 73.1118C665.781 73.37 665.865 73.6831 665.865 74.0513C665.865 74.6691 665.609 75.1706 665.097 75.5557C664.585 75.9365 663.914 76.127 663.085 76.127C662.522 76.127 662.021 76.0254 661.581 75.8223C661.14 75.6191 660.798 75.3398 660.552 74.9844C660.307 74.6289 660.184 74.2459 660.184 73.8354H661.682C661.703 74.1994 661.841 74.4808 662.095 74.6797C662.349 74.8743 662.685 74.9717 663.104 74.9717C663.51 74.9717 663.819 74.8955 664.031 74.7432C664.242 74.5866 664.348 74.3835 664.348 74.1338ZM669.147 67.4624V69.1318H670.359V70.2744H669.147V74.1084C669.147 74.3708 669.198 74.5612 669.299 74.6797C669.405 74.7939 669.591 74.8511 669.858 74.8511C670.036 74.8511 670.215 74.8299 670.397 74.7876V75.981C670.046 76.0783 669.708 76.127 669.382 76.127C668.197 76.127 667.604 75.4731 667.604 74.1655V70.2744H666.475V69.1318H667.604V67.4624H669.147Z" fill="#EDEDED"/>
<path d="M365.521 21.373H366.988V6.20312H365.521V21.373Z" fill="#EDEDED"/>
<path d="M486.524 23.2246H492.334V25H484.301V12.2031H486.524V23.2246ZM493.433 20.1572C493.433 19.2256 493.617 18.3877 493.986 17.6436C494.355 16.8936 494.874 16.3193 495.542 15.9209C496.21 15.5166 496.978 15.3145 497.845 15.3145C499.128 15.3145 500.168 15.7275 500.965 16.5537C501.768 17.3799 502.201 18.4756 502.266 19.8408L502.274 20.3418C502.274 21.2793 502.093 22.1172 501.729 22.8555C501.372 23.5938 500.856 24.165 500.183 24.5693C499.515 24.9736 498.741 25.1758 497.862 25.1758C496.521 25.1758 495.445 24.7305 494.637 23.8398C493.834 22.9434 493.433 21.751 493.433 20.2627V20.1572ZM495.568 20.3418C495.568 21.3203 495.771 22.0879 496.175 22.6445C496.579 23.1953 497.142 23.4707 497.862 23.4707C498.583 23.4707 499.143 23.1895 499.541 22.627C499.945 22.0645 500.147 21.2412 500.147 20.1572C500.147 19.1963 499.939 18.4346 499.523 17.8721C499.113 17.3096 498.554 17.0283 497.845 17.0283C497.147 17.0283 496.594 17.3066 496.184 17.8633C495.773 18.4141 495.568 19.2402 495.568 20.3418ZM507.987 23.4707C508.521 23.4707 508.963 23.3154 509.314 23.0049C509.666 22.6943 509.854 22.3105 509.877 21.8535H511.89C511.866 22.4453 511.682 22.999 511.336 23.5146C510.99 24.0244 510.521 24.4287 509.93 24.7275C509.338 25.0264 508.699 25.1758 508.014 25.1758C506.684 25.1758 505.629 24.7451 504.85 23.8838C504.07 23.0225 503.681 21.833 503.681 20.3154V20.0957C503.681 18.6484 504.067 17.4912 504.841 16.624C505.614 15.751 506.669 15.3145 508.005 15.3145C509.136 15.3145 510.056 15.6455 510.765 16.3076C511.479 16.9639 511.854 17.8281 511.89 18.9004H509.877C509.854 18.3555 509.666 17.9072 509.314 17.5557C508.969 17.2041 508.526 17.0283 507.987 17.0283C507.296 17.0283 506.763 17.2803 506.388 17.7842C506.013 18.2822 505.822 19.041 505.816 20.0605V20.4033C505.816 21.4346 506.001 22.2051 506.37 22.7148C506.745 23.2188 507.284 23.4707 507.987 23.4707ZM519.185 25C519.091 24.8184 519.009 24.5225 518.938 24.1123C518.259 24.8213 517.427 25.1758 516.442 25.1758C515.487 25.1758 514.708 24.9033 514.104 24.3584C513.501 23.8135 513.199 23.1396 513.199 22.3369C513.199 21.3232 513.574 20.5469 514.324 20.0078C515.08 19.4629 516.158 19.1904 517.559 19.1904H518.868V18.5664C518.868 18.0742 518.73 17.6816 518.455 17.3887C518.18 17.0898 517.761 16.9404 517.198 16.9404C516.712 16.9404 516.313 17.0635 516.003 17.3096C515.692 17.5498 515.537 17.8574 515.537 18.2324H513.401C513.401 17.7109 513.574 17.2246 513.92 16.7734C514.266 16.3164 514.734 15.959 515.326 15.7012C515.924 15.4434 516.589 15.3145 517.321 15.3145C518.435 15.3145 519.322 15.5957 519.984 16.1582C520.646 16.7148 520.986 17.5 521.004 18.5137V22.8027C521.004 23.6582 521.124 24.3408 521.364 24.8506V25H519.185ZM516.838 23.4619C517.26 23.4619 517.655 23.3594 518.024 23.1543C518.399 22.9492 518.681 22.6738 518.868 22.3281V20.5352H517.717C516.926 20.5352 516.331 20.6729 515.933 20.9482C515.534 21.2236 515.335 21.6133 515.335 22.1172C515.335 22.5273 515.47 22.8555 515.739 23.1016C516.015 23.3418 516.381 23.4619 516.838 23.4619ZM525.917 13.1787V15.4902H527.596V17.0723H525.917V22.3809C525.917 22.7441 525.987 23.0078 526.128 23.1719C526.274 23.3301 526.532 23.4092 526.901 23.4092C527.147 23.4092 527.396 23.3799 527.648 23.3213V24.9736C527.162 25.1084 526.693 25.1758 526.242 25.1758C524.602 25.1758 523.781 24.2705 523.781 22.46V17.0723H522.217V15.4902H523.781V13.1787H525.917ZM531.507 25H529.371V15.4902H531.507V25ZM529.239 13.0205C529.239 12.6924 529.342 12.4199 529.547 12.2031C529.758 11.9863 530.057 11.8779 530.443 11.8779C530.83 11.8779 531.129 11.9863 531.34 12.2031C531.551 12.4199 531.656 12.6924 531.656 13.0205C531.656 13.3428 531.551 13.6123 531.34 13.8291C531.129 14.04 530.83 14.1455 530.443 14.1455C530.057 14.1455 529.758 14.04 529.547 13.8291C529.342 13.6123 529.239 13.3428 529.239 13.0205ZM533.44 20.1572C533.44 19.2256 533.625 18.3877 533.994 17.6436C534.363 16.8936 534.882 16.3193 535.55 15.9209C536.218 15.5166 536.985 15.3145 537.853 15.3145C539.136 15.3145 540.176 15.7275 540.973 16.5537C541.775 17.3799 542.209 18.4756 542.273 19.8408L542.282 20.3418C542.282 21.2793 542.101 22.1172 541.737 22.8555C541.38 23.5938 540.864 24.165 540.19 24.5693C539.522 24.9736 538.749 25.1758 537.87 25.1758C536.528 25.1758 535.453 24.7305 534.645 23.8398C533.842 22.9434 533.44 21.751 533.44 20.2627V20.1572ZM535.576 20.3418C535.576 21.3203 535.778 22.0879 536.183 22.6445C536.587 23.1953 537.149 23.4707 537.87 23.4707C538.591 23.4707 539.15 23.1895 539.549 22.627C539.953 22.0645 540.155 21.2412 540.155 20.1572C540.155 19.1963 539.947 18.4346 539.531 17.8721C539.121 17.3096 538.562 17.0283 537.853 17.0283C537.155 17.0283 536.602 17.3066 536.191 17.8633C535.781 18.4141 535.576 19.2402 535.576 20.3418ZM546.07 15.4902L546.132 16.5889C546.835 15.7393 547.758 15.3145 548.9 15.3145C550.881 15.3145 551.889 16.4482 551.924 18.7158V25H549.788V18.8389C549.788 18.2354 549.656 17.79 549.393 17.5029C549.135 17.21 548.71 17.0635 548.118 17.0635C547.257 17.0635 546.615 17.4531 546.193 18.2324V25H544.058V15.4902H546.07Z" fill="#EDEDED"/>
<rect x="60" y="33" width="544" height="77" rx="3" fill="#C4C4C4"/>
<path d="M308.635 98.293H305.939V99.958H309.097V101H304.634V94.7427H309.081V95.7954H305.939V97.2456H308.635V98.293ZM312.288 96.9072L313.587 94.7427H315.113L313.099 97.8472L315.226 101H313.679L312.309 98.8032L310.966 101H309.441L311.509 97.8472L309.489 94.7427H311.004L312.288 96.9072ZM317.272 98.8032V101H315.967V94.7427H318.572C319.331 94.7427 319.936 94.9342 320.387 95.3174C320.842 95.6969 321.069 96.1965 321.069 96.8159C321.069 97.4211 320.853 97.9009 320.419 98.2554C319.99 98.6099 319.395 98.7925 318.636 98.8032H317.272ZM317.272 97.7505H318.572C318.944 97.7505 319.236 97.6717 319.447 97.5142C319.662 97.3566 319.77 97.1274 319.77 96.8267C319.77 96.5151 319.66 96.2663 319.442 96.0801C319.227 95.8903 318.939 95.7954 318.577 95.7954H317.272V97.7505ZM325.887 99.6626H323.298L322.788 101H321.472L324.002 94.7427H325.2L327.719 101H326.397L325.887 99.6626ZM323.68 98.6689H325.506L324.593 96.2949L323.68 98.6689ZM333.826 101H332.526L329.711 96.73V101H328.406V94.7427H329.711L332.526 99.0181V94.7427H333.826V101ZM335.099 101V94.7427H337.134C337.722 94.7427 338.246 94.8662 338.708 95.1133C339.174 95.3604 339.535 95.7095 339.793 96.1606C340.051 96.6082 340.183 97.1167 340.19 97.686V98.0137C340.19 98.5973 340.062 99.1165 339.804 99.5713C339.549 100.026 339.186 100.379 338.713 100.629C338.244 100.876 337.709 101 337.107 101H335.099ZM336.404 95.7954V99.958H337.102C338.273 99.958 338.869 99.335 338.891 98.0889V97.729C338.891 96.4686 338.334 95.8241 337.22 95.7954H336.404Z" fill="#745F5F"/>
<path d="M304 102.074H340.62V102.611H304V102.074Z" fill="#745F5F"/>
<path d="M83.0029 52.0693H80.5244V57H78.3008V44.2031H82.8008C84.2773 44.2031 85.417 44.5342 86.2197 45.1963C87.0225 45.8584 87.4238 46.8164 87.4238 48.0703C87.4238 48.9258 87.2158 49.6436 86.7998 50.2236C86.3896 50.7979 85.8154 51.2402 85.0771 51.5508L87.9512 56.8857V57H85.5693L83.0029 52.0693ZM80.5244 50.2852H82.8096C83.5596 50.2852 84.1455 50.0977 84.5674 49.7227C84.9893 49.3418 85.2002 48.8232 85.2002 48.167C85.2002 47.4814 85.0039 46.9512 84.6113 46.5762C84.2246 46.2012 83.6445 46.0078 82.8711 45.9961H80.5244V50.2852ZM93.5146 57.1758C92.1611 57.1758 91.0625 56.751 90.2188 55.9014C89.3809 55.0459 88.9619 53.9092 88.9619 52.4912V52.2275C88.9619 51.2783 89.1436 50.4316 89.5068 49.6875C89.876 48.9375 90.3916 48.3545 91.0537 47.9385C91.7158 47.5225 92.4541 47.3145 93.2686 47.3145C94.5635 47.3145 95.5625 47.7275 96.2656 48.5537C96.9746 49.3799 97.3291 50.5488 97.3291 52.0605V52.9219H91.1152C91.1797 53.707 91.4404 54.3281 91.8975 54.7852C92.3604 55.2422 92.9404 55.4707 93.6377 55.4707C94.6162 55.4707 95.4131 55.0752 96.0283 54.2842L97.1797 55.3828C96.7988 55.9512 96.2891 56.3936 95.6504 56.71C95.0176 57.0205 94.3057 57.1758 93.5146 57.1758ZM93.2598 49.0283C92.6738 49.0283 92.1992 49.2334 91.8359 49.6436C91.4785 50.0537 91.25 50.625 91.1504 51.3574H95.2197V51.1992C95.1729 50.4844 94.9824 49.9453 94.6484 49.582C94.3145 49.2129 93.8516 49.0283 93.2598 49.0283ZM104.677 57C104.583 56.8184 104.501 56.5225 104.431 56.1123C103.751 56.8213 102.919 57.1758 101.935 57.1758C100.979 57.1758 100.2 56.9033 99.5967 56.3584C98.9932 55.8135 98.6914 55.1396 98.6914 54.3369C98.6914 53.3232 99.0664 52.5469 99.8164 52.0078C100.572 51.4629 101.65 51.1904 103.051 51.1904H104.36V50.5664C104.36 50.0742 104.223 49.6816 103.947 49.3887C103.672 49.0898 103.253 48.9404 102.69 48.9404C102.204 48.9404 101.806 49.0635 101.495 49.3096C101.185 49.5498 101.029 49.8574 101.029 50.2324H98.8936C98.8936 49.7109 99.0664 49.2246 99.4121 48.7734C99.7578 48.3164 100.227 47.959 100.818 47.7012C101.416 47.4434 102.081 47.3145 102.813 47.3145C103.927 47.3145 104.814 47.5957 105.477 48.1582C106.139 48.7148 106.479 49.5 106.496 50.5137V54.8027C106.496 55.6582 106.616 56.3408 106.856 56.8506V57H104.677ZM102.33 55.4619C102.752 55.4619 103.147 55.3594 103.517 55.1543C103.892 54.9492 104.173 54.6738 104.36 54.3281V52.5352H103.209C102.418 52.5352 101.823 52.6729 101.425 52.9482C101.026 53.2236 100.827 53.6133 100.827 54.1172C100.827 54.5273 100.962 54.8555 101.231 55.1016C101.507 55.3418 101.873 55.4619 102.33 55.4619ZM112.64 55.4707C113.173 55.4707 113.615 55.3154 113.967 55.0049C114.318 54.6943 114.506 54.3105 114.529 53.8535H116.542C116.519 54.4453 116.334 54.999 115.988 55.5146C115.643 56.0244 115.174 56.4287 114.582 56.7275C113.99 57.0264 113.352 57.1758 112.666 57.1758C111.336 57.1758 110.281 56.7451 109.502 55.8838C108.723 55.0225 108.333 53.833 108.333 52.3154V52.0957C108.333 50.6484 108.72 49.4912 109.493 48.624C110.267 47.751 111.321 47.3145 112.657 47.3145C113.788 47.3145 114.708 47.6455 115.417 48.3076C116.132 48.9639 116.507 49.8281 116.542 50.9004H114.529C114.506 50.3555 114.318 49.9072 113.967 49.5557C113.621 49.2041 113.179 49.0283 112.64 49.0283C111.948 49.0283 111.415 49.2803 111.04 49.7842C110.665 50.2822 110.475 51.041 110.469 52.0605V52.4033C110.469 53.4346 110.653 54.2051 111.022 54.7148C111.397 55.2188 111.937 55.4707 112.64 55.4707ZM120.831 45.1787V47.4902H122.51V49.0723H120.831V54.3809C120.831 54.7441 120.901 55.0078 121.042 55.1719C121.188 55.3301 121.446 55.4092 121.815 55.4092C122.062 55.4092 122.311 55.3799 122.562 55.3213V56.9736C122.076 57.1084 121.607 57.1758 121.156 57.1758C119.516 57.1758 118.695 56.2705 118.695 54.46V49.0723H117.131V47.4902H118.695V45.1787H120.831ZM128.838 57V44.2031H132.617C133.748 44.2031 134.75 44.4551 135.623 44.959C136.502 45.4629 137.182 46.1777 137.662 47.1035C138.143 48.0293 138.383 49.0898 138.383 50.2852V50.9268C138.383 52.1396 138.14 53.2061 137.653 54.126C137.173 55.0459 136.484 55.7549 135.588 56.2529C134.697 56.751 133.675 57 132.521 57H128.838ZM131.062 45.9961V55.2246H132.512C133.678 55.2246 134.571 54.8613 135.192 54.1348C135.819 53.4023 136.139 52.3535 136.15 50.9883V50.2764C136.15 48.8877 135.849 47.8271 135.245 47.0947C134.642 46.3623 133.766 45.9961 132.617 45.9961H131.062ZM144.579 57.1758C143.226 57.1758 142.127 56.751 141.283 55.9014C140.445 55.0459 140.026 53.9092 140.026 52.4912V52.2275C140.026 51.2783 140.208 50.4316 140.571 49.6875C140.94 48.9375 141.456 48.3545 142.118 47.9385C142.78 47.5225 143.519 47.3145 144.333 47.3145C145.628 47.3145 146.627 47.7275 147.33 48.5537C148.039 49.3799 148.394 50.5488 148.394 52.0605V52.9219H142.18C142.244 53.707 142.505 54.3281 142.962 54.7852C143.425 55.2422 144.005 55.4707 144.702 55.4707C145.681 55.4707 146.478 55.0752 147.093 54.2842L148.244 55.3828C147.863 55.9512 147.354 56.3936 146.715 56.71C146.082 57.0205 145.37 57.1758 144.579 57.1758ZM144.324 49.0283C143.738 49.0283 143.264 49.2334 142.9 49.6436C142.543 50.0537 142.314 50.625 142.215 51.3574H146.284V51.1992C146.237 50.4844 146.047 49.9453 145.713 49.582C145.379 49.2129 144.916 49.0283 144.324 49.0283ZM153.289 54.293L155.302 47.4902H157.508L154.212 57H152.357L149.035 47.4902H151.25L153.289 54.293ZM162.913 57.1758C161.56 57.1758 160.461 56.751 159.617 55.9014C158.779 55.0459 158.36 53.9092 158.36 52.4912V52.2275C158.36 51.2783 158.542 50.4316 158.905 49.6875C159.274 48.9375 159.79 48.3545 160.452 47.9385C161.114 47.5225 161.853 47.3145 162.667 47.3145C163.962 47.3145 164.961 47.7275 165.664 48.5537C166.373 49.3799 166.728 50.5488 166.728 52.0605V52.9219H160.514C160.578 53.707 160.839 54.3281 161.296 54.7852C161.759 55.2422 162.339 55.4707 163.036 55.4707C164.015 55.4707 164.812 55.0752 165.427 54.2842L166.578 55.3828C166.197 55.9512 165.688 56.3936 165.049 56.71C164.416 57.0205 163.704 57.1758 162.913 57.1758ZM162.658 49.0283C162.072 49.0283 161.598 49.2334 161.234 49.6436C160.877 50.0537 160.648 50.625 160.549 51.3574H164.618V51.1992C164.571 50.4844 164.381 49.9453 164.047 49.582C163.713 49.2129 163.25 49.0283 162.658 49.0283ZM170.665 57H168.529V43.5H170.665V57ZM172.599 52.1572C172.599 51.2256 172.783 50.3877 173.152 49.6436C173.521 48.8936 174.04 48.3193 174.708 47.9209C175.376 47.5166 176.144 47.3145 177.011 47.3145C178.294 47.3145 179.334 47.7275 180.131 48.5537C180.934 49.3799 181.367 50.4756 181.432 51.8408L181.44 52.3418C181.44 53.2793 181.259 54.1172 180.896 54.8555C180.538 55.5938 180.022 56.165 179.349 56.5693C178.681 56.9736 177.907 57.1758 177.028 57.1758C175.687 57.1758 174.611 56.7305 173.803 55.8398C173 54.9434 172.599 53.751 172.599 52.2627V52.1572ZM174.734 52.3418C174.734 53.3203 174.937 54.0879 175.341 54.6445C175.745 55.1953 176.308 55.4707 177.028 55.4707C177.749 55.4707 178.309 55.1895 178.707 54.627C179.111 54.0645 179.313 53.2412 179.313 52.1572C179.313 51.1963 179.105 50.4346 178.689 49.8721C178.279 49.3096 177.72 49.0283 177.011 49.0283C176.313 49.0283 175.76 49.3066 175.35 49.8633C174.939 50.4141 174.734 51.2402 174.734 52.3418ZM191.574 52.3418C191.574 53.8125 191.24 54.9873 190.572 55.8662C189.904 56.7393 189.008 57.1758 187.883 57.1758C186.84 57.1758 186.005 56.833 185.378 56.1475V60.6562H183.242V47.4902H185.211L185.299 48.457C185.926 47.6953 186.778 47.3145 187.856 47.3145C189.017 47.3145 189.925 47.748 190.581 48.6152C191.243 49.4766 191.574 50.6748 191.574 52.21V52.3418ZM189.447 52.1572C189.447 51.208 189.257 50.4551 188.876 49.8984C188.501 49.3418 187.962 49.0635 187.259 49.0635C186.386 49.0635 185.759 49.4238 185.378 50.1445V54.3633C185.765 55.1016 186.397 55.4707 187.276 55.4707C187.956 55.4707 188.486 55.1982 188.867 54.6533C189.254 54.1025 189.447 53.2705 189.447 52.1572ZM197.577 57.1758C196.224 57.1758 195.125 56.751 194.281 55.9014C193.443 55.0459 193.024 53.9092 193.024 52.4912V52.2275C193.024 51.2783 193.206 50.4316 193.569 49.6875C193.938 48.9375 194.454 48.3545 195.116 47.9385C195.778 47.5225 196.517 47.3145 197.331 47.3145C198.626 47.3145 199.625 47.7275 200.328 48.5537C201.037 49.3799 201.392 50.5488 201.392 52.0605V52.9219H195.178C195.242 53.707 195.503 54.3281 195.96 54.7852C196.423 55.2422 197.003 55.4707 197.7 55.4707C198.679 55.4707 199.476 55.0752 200.091 54.2842L201.242 55.3828C200.861 55.9512 200.352 56.3936 199.713 56.71C199.08 57.0205 198.368 57.1758 197.577 57.1758ZM197.322 49.0283C196.736 49.0283 196.262 49.2334 195.898 49.6436C195.541 50.0537 195.312 50.625 195.213 51.3574H199.282V51.1992C199.235 50.4844 199.045 49.9453 198.711 49.582C198.377 49.2129 197.914 49.0283 197.322 49.0283ZM208.036 49.4414C207.755 49.3945 207.465 49.3711 207.166 49.3711C206.188 49.3711 205.528 49.7461 205.188 50.4961V57H203.053V47.4902H205.092L205.145 48.5537C205.66 47.7275 206.375 47.3145 207.289 47.3145C207.594 47.3145 207.846 47.3555 208.045 47.4375L208.036 49.4414ZM368.173 59.373H366.705V44.2031H368.173V59.373ZM485.938 44.2031L489.629 54.0117L493.312 44.2031H496.186V57H493.971V52.7812L494.19 47.1387L490.411 57H488.82L485.05 47.1475L485.27 52.7812V57H483.055V44.2031H485.938ZM504.298 57C504.204 56.8184 504.122 56.5225 504.052 56.1123C503.372 56.8213 502.54 57.1758 501.556 57.1758C500.601 57.1758 499.821 56.9033 499.218 56.3584C498.614 55.8135 498.312 55.1396 498.312 54.3369C498.312 53.3232 498.688 52.5469 499.438 52.0078C500.193 51.4629 501.271 51.1904 502.672 51.1904H503.981V50.5664C503.981 50.0742 503.844 49.6816 503.568 49.3887C503.293 49.0898 502.874 48.9404 502.312 48.9404C501.825 48.9404 501.427 49.0635 501.116 49.3096C500.806 49.5498 500.65 49.8574 500.65 50.2324H498.515C498.515 49.7109 498.688 49.2246 499.033 48.7734C499.379 48.3164 499.848 47.959 500.439 47.7012C501.037 47.4434 501.702 47.3145 502.435 47.3145C503.548 47.3145 504.436 47.5957 505.098 48.1582C505.76 48.7148 506.1 49.5 506.117 50.5137V54.8027C506.117 55.6582 506.237 56.3408 506.478 56.8506V57H504.298ZM501.951 55.4619C502.373 55.4619 502.769 55.3594 503.138 55.1543C503.513 54.9492 503.794 54.6738 503.981 54.3281V52.5352H502.83C502.039 52.5352 501.444 52.6729 501.046 52.9482C500.647 53.2236 500.448 53.6133 500.448 54.1172C500.448 54.5273 500.583 54.8555 500.853 55.1016C501.128 55.3418 501.494 55.4619 501.951 55.4619ZM510.336 47.4902L510.397 48.5889C511.101 47.7393 512.023 47.3145 513.166 47.3145C515.146 47.3145 516.154 48.4482 516.189 50.7158V57H514.054V50.8389C514.054 50.2354 513.922 49.79 513.658 49.5029C513.4 49.21 512.976 49.0635 512.384 49.0635C511.522 49.0635 510.881 49.4531 510.459 50.2324V57H508.323V47.4902H510.336ZM520.479 48.5273C521.176 47.7188 522.058 47.3145 523.124 47.3145C525.151 47.3145 526.18 48.4717 526.209 50.7861V57H524.073V50.8652C524.073 50.209 523.93 49.7461 523.643 49.4766C523.361 49.2012 522.945 49.0635 522.395 49.0635C521.539 49.0635 520.9 49.4443 520.479 50.2061V57H518.343V43.5H520.479V48.5273ZM534.058 57C533.964 56.8184 533.882 56.5225 533.812 56.1123C533.132 56.8213 532.3 57.1758 531.315 57.1758C530.36 57.1758 529.581 56.9033 528.978 56.3584C528.374 55.8135 528.072 55.1396 528.072 54.3369C528.072 53.3232 528.447 52.5469 529.197 52.0078C529.953 51.4629 531.031 51.1904 532.432 51.1904H533.741V50.5664C533.741 50.0742 533.604 49.6816 533.328 49.3887C533.053 49.0898 532.634 48.9404 532.071 48.9404C531.585 48.9404 531.187 49.0635 530.876 49.3096C530.565 49.5498 530.41 49.8574 530.41 50.2324H528.274C528.274 49.7109 528.447 49.2246 528.793 48.7734C529.139 48.3164 529.607 47.959 530.199 47.7012C530.797 47.4434 531.462 47.3145 532.194 47.3145C533.308 47.3145 534.195 47.5957 534.857 48.1582C535.52 48.7148 535.859 49.5 535.877 50.5137V54.8027C535.877 55.6582 535.997 56.3408 536.237 56.8506V57H534.058ZM531.711 55.4619C532.133 55.4619 532.528 55.3594 532.897 55.1543C533.272 54.9492 533.554 54.6738 533.741 54.3281V52.5352H532.59C531.799 52.5352 531.204 52.6729 530.806 52.9482C530.407 53.2236 530.208 53.6133 530.208 54.1172C530.208 54.5273 530.343 54.8555 530.612 55.1016C530.888 55.3418 531.254 55.4619 531.711 55.4619ZM540.79 45.1787V47.4902H542.469V49.0723H540.79V54.3809C540.79 54.7441 540.86 55.0078 541.001 55.1719C541.147 55.3301 541.405 55.4092 541.774 55.4092C542.021 55.4092 542.27 55.3799 542.521 55.3213V56.9736C542.035 57.1084 541.566 57.1758 541.115 57.1758C539.475 57.1758 538.654 56.2705 538.654 54.46V49.0723H537.09V47.4902H538.654V45.1787H540.79ZM546.784 45.1787V47.4902H548.463V49.0723H546.784V54.3809C546.784 54.7441 546.854 55.0078 546.995 55.1719C547.142 55.3301 547.399 55.4092 547.769 55.4092C548.015 55.4092 548.264 55.3799 548.516 55.3213V56.9736C548.029 57.1084 547.561 57.1758 547.109 57.1758C545.469 57.1758 544.648 56.2705 544.648 54.46V49.0723H543.084V47.4902H544.648V45.1787H546.784ZM555.784 57C555.69 56.8184 555.608 56.5225 555.538 56.1123C554.858 56.8213 554.026 57.1758 553.042 57.1758C552.087 57.1758 551.308 56.9033 550.704 56.3584C550.101 55.8135 549.799 55.1396 549.799 54.3369C549.799 53.3232 550.174 52.5469 550.924 52.0078C551.68 51.4629 552.758 51.1904 554.158 51.1904H555.468V50.5664C555.468 50.0742 555.33 49.6816 555.055 49.3887C554.779 49.0898 554.36 48.9404 553.798 48.9404C553.312 48.9404 552.913 49.0635 552.603 49.3096C552.292 49.5498 552.137 49.8574 552.137 50.2324H550.001C550.001 49.7109 550.174 49.2246 550.52 48.7734C550.865 48.3164 551.334 47.959 551.926 47.7012C552.523 47.4434 553.188 47.3145 553.921 47.3145C555.034 47.3145 555.922 47.5957 556.584 48.1582C557.246 48.7148 557.586 49.5 557.604 50.5137V54.8027C557.604 55.6582 557.724 56.3408 557.964 56.8506V57H555.784ZM553.438 55.4619C553.859 55.4619 554.255 55.3594 554.624 55.1543C554.999 54.9492 555.28 54.6738 555.468 54.3281V52.5352H554.316C553.525 52.5352 552.931 52.6729 552.532 52.9482C552.134 53.2236 551.935 53.6133 551.935 54.1172C551.935 54.5273 552.069 54.8555 552.339 55.1016C552.614 55.3418 552.98 55.4619 553.438 55.4619ZM561.822 47.4902L561.884 48.5889C562.587 47.7393 563.51 47.3145 564.652 47.3145C566.633 47.3145 567.641 48.4482 567.676 50.7158V57H565.54V50.8389C565.54 50.2354 565.408 49.79 565.145 49.5029C564.887 49.21 564.462 49.0635 563.87 49.0635C563.009 49.0635 562.367 49.4531 561.945 50.2324V57H559.81V47.4902H561.822Z" fill="#745F5F"/>
<path d="M586.039 69.6133H590.492V72.2148H586.039V77.2891H583.273V72.2148H578.797V69.6133H583.273V64.8672H586.039V69.6133Z" fill="#745F5F"/>
<path d="M94.0859 72.0469H95.8086V79.0264C95.8086 79.9788 95.5101 80.7354 94.9131 81.2959C94.3206 81.8564 93.5368 82.1367 92.5615 82.1367C91.5225 82.1367 90.7204 81.8747 90.1553 81.3506C89.5902 80.8265 89.3076 80.0973 89.3076 79.1631H91.0303C91.0303 79.6917 91.1602 80.0905 91.4199 80.3594C91.6842 80.6237 92.0648 80.7559 92.5615 80.7559C93.0264 80.7559 93.3955 80.6032 93.6689 80.2979C93.9469 79.988 94.0859 79.5618 94.0859 79.0195V72.0469ZM97.3193 78.2334C97.3193 77.5088 97.4629 76.8571 97.75 76.2783C98.0371 75.695 98.4404 75.2484 98.96 74.9385C99.4795 74.624 100.076 74.4668 100.751 74.4668C101.749 74.4668 102.558 74.7881 103.178 75.4307C103.802 76.0732 104.139 76.9255 104.189 77.9873L104.196 78.377C104.196 79.1061 104.055 79.7578 103.772 80.332C103.494 80.9062 103.093 81.3506 102.569 81.665C102.05 81.9795 101.448 82.1367 100.765 82.1367C99.721 82.1367 98.8848 81.7904 98.2559 81.0977C97.6315 80.4004 97.3193 79.473 97.3193 78.3154V78.2334ZM98.9805 78.377C98.9805 79.138 99.1377 79.735 99.4521 80.168C99.7666 80.5964 100.204 80.8105 100.765 80.8105C101.325 80.8105 101.76 80.5918 102.07 80.1543C102.385 79.7168 102.542 79.0765 102.542 78.2334C102.542 77.486 102.38 76.8936 102.057 76.4561C101.738 76.0186 101.302 75.7998 100.751 75.7998C100.209 75.7998 99.778 76.0163 99.459 76.4492C99.14 76.8776 98.9805 77.5202 98.9805 78.377ZM112.092 78.377C112.092 79.5254 111.834 80.4391 111.319 81.1182C110.809 81.7972 110.105 82.1367 109.207 82.1367C108.341 82.1367 107.667 81.8245 107.184 81.2002L107.102 82H105.598V71.5H107.259V75.3145C107.737 74.7493 108.382 74.4668 109.193 74.4668C110.096 74.4668 110.804 74.8018 111.319 75.4717C111.834 76.1416 112.092 77.0781 112.092 78.2812V78.377ZM110.431 78.2334C110.431 77.4313 110.289 76.8298 110.007 76.4287C109.724 76.0277 109.314 75.8271 108.776 75.8271C108.056 75.8271 107.55 76.1416 107.259 76.7705V79.8193C107.555 80.4619 108.065 80.7832 108.79 80.7832C109.31 80.7832 109.711 80.5895 109.993 80.2021C110.276 79.8148 110.422 79.2292 110.431 78.4453V78.2334ZM122.708 79.6826H118.853L118.046 82H116.248L120.008 72.0469H121.56L125.326 82H123.521L122.708 79.6826ZM119.338 78.2881H122.223L120.78 74.1592L119.338 78.2881ZM130.446 79.9902C130.446 79.694 130.323 79.4684 130.077 79.3135C129.836 79.1585 129.432 79.0218 128.867 78.9033C128.302 78.7848 127.83 78.6344 127.452 78.4521C126.623 78.0511 126.208 77.4701 126.208 76.709C126.208 76.071 126.477 75.5378 127.015 75.1094C127.552 74.681 128.236 74.4668 129.065 74.4668C129.95 74.4668 130.663 74.6855 131.205 75.123C131.752 75.5605 132.025 76.1279 132.025 76.8252H130.364C130.364 76.5062 130.246 76.2419 130.009 76.0322C129.772 75.818 129.457 75.7109 129.065 75.7109C128.701 75.7109 128.402 75.7952 128.17 75.9639C127.942 76.1325 127.828 76.3581 127.828 76.6406C127.828 76.8958 127.935 77.0941 128.149 77.2354C128.364 77.3766 128.797 77.5202 129.448 77.666C130.1 77.8073 130.61 77.9782 130.979 78.1787C131.353 78.3747 131.629 78.6117 131.807 78.8896C131.989 79.1676 132.08 79.5049 132.08 79.9014C132.08 80.5667 131.804 81.1068 131.253 81.5215C130.701 81.9316 129.979 82.1367 129.086 82.1367C128.48 82.1367 127.94 82.0273 127.466 81.8086C126.992 81.5898 126.623 81.2891 126.358 80.9062C126.094 80.5234 125.962 80.111 125.962 79.6689H127.575C127.598 80.0609 127.746 80.3639 128.02 80.5781C128.293 80.7878 128.655 80.8926 129.106 80.8926C129.544 80.8926 129.877 80.8105 130.104 80.6465C130.332 80.4779 130.446 80.2591 130.446 79.9902ZM137.679 79.9902C137.679 79.694 137.556 79.4684 137.31 79.3135C137.068 79.1585 136.665 79.0218 136.1 78.9033C135.535 78.7848 135.063 78.6344 134.685 78.4521C133.855 78.0511 133.44 77.4701 133.44 76.709C133.44 76.071 133.709 75.5378 134.247 75.1094C134.785 74.681 135.468 74.4668 136.298 74.4668C137.182 74.4668 137.895 74.6855 138.438 75.123C138.984 75.5605 139.258 76.1279 139.258 76.8252H137.597C137.597 76.5062 137.478 76.2419 137.241 76.0322C137.004 75.818 136.69 75.7109 136.298 75.7109C135.933 75.7109 135.635 75.7952 135.402 75.9639C135.174 76.1325 135.061 76.3581 135.061 76.6406C135.061 76.8958 135.168 77.0941 135.382 77.2354C135.596 77.3766 136.029 77.5202 136.681 77.666C137.332 77.8073 137.843 77.9782 138.212 78.1787C138.586 78.3747 138.861 78.6117 139.039 78.8896C139.221 79.1676 139.312 79.5049 139.312 79.9014C139.312 80.5667 139.037 81.1068 138.485 81.5215C137.934 81.9316 137.212 82.1367 136.318 82.1367C135.712 82.1367 135.172 82.0273 134.698 81.8086C134.224 81.5898 133.855 81.2891 133.591 80.9062C133.326 80.5234 133.194 80.111 133.194 79.6689H134.808C134.83 80.0609 134.979 80.3639 135.252 80.5781C135.525 80.7878 135.888 80.8926 136.339 80.8926C136.776 80.8926 137.109 80.8105 137.337 80.6465C137.565 80.4779 137.679 80.2591 137.679 79.9902ZM142.532 82H140.871V74.6035H142.532V82ZM140.769 72.6826C140.769 72.4274 140.848 72.2155 141.008 72.0469C141.172 71.8783 141.404 71.7939 141.705 71.7939C142.006 71.7939 142.238 71.8783 142.402 72.0469C142.566 72.2155 142.648 72.4274 142.648 72.6826C142.648 72.9333 142.566 73.1429 142.402 73.3115C142.238 73.4756 142.006 73.5576 141.705 73.5576C141.404 73.5576 141.172 73.4756 141.008 73.3115C140.848 73.1429 140.769 72.9333 140.769 72.6826ZM148.493 79.9902C148.493 79.694 148.37 79.4684 148.124 79.3135C147.882 79.1585 147.479 79.0218 146.914 78.9033C146.349 78.7848 145.877 78.6344 145.499 78.4521C144.67 78.0511 144.255 77.4701 144.255 76.709C144.255 76.071 144.524 75.5378 145.062 75.1094C145.599 74.681 146.283 74.4668 147.112 74.4668C147.996 74.4668 148.71 74.6855 149.252 75.123C149.799 75.5605 150.072 76.1279 150.072 76.8252H148.411C148.411 76.5062 148.293 76.2419 148.056 76.0322C147.819 75.818 147.504 75.7109 147.112 75.7109C146.748 75.7109 146.449 75.7952 146.217 75.9639C145.989 76.1325 145.875 76.3581 145.875 76.6406C145.875 76.8958 145.982 77.0941 146.196 77.2354C146.41 77.3766 146.843 77.5202 147.495 77.666C148.147 77.8073 148.657 77.9782 149.026 78.1787C149.4 78.3747 149.676 78.6117 149.854 78.8896C150.036 79.1676 150.127 79.5049 150.127 79.9014C150.127 80.5667 149.851 81.1068 149.3 81.5215C148.748 81.9316 148.026 82.1367 147.133 82.1367C146.527 82.1367 145.987 82.0273 145.513 81.8086C145.039 81.5898 144.67 81.2891 144.405 80.9062C144.141 80.5234 144.009 80.111 144.009 79.6689H145.622C145.645 80.0609 145.793 80.3639 146.066 80.5781C146.34 80.7878 146.702 80.8926 147.153 80.8926C147.591 80.8926 147.924 80.8105 148.151 80.6465C148.379 80.4779 148.493 80.2591 148.493 79.9902ZM153.661 72.8057V74.6035H154.967V75.834H153.661V79.9629C153.661 80.2454 153.716 80.4505 153.825 80.5781C153.939 80.7012 154.14 80.7627 154.427 80.7627C154.618 80.7627 154.812 80.7399 155.008 80.6943V81.9795C154.63 82.0843 154.265 82.1367 153.914 82.1367C152.638 82.1367 152 81.4326 152 80.0244V75.834H150.783V74.6035H152V72.8057H153.661Z" fill="#8F7575"/>
<rect x="60" y="136" width="544" height="77" rx="3" fill="#C4C4C4"/>
<path d="M308.635 201.293H305.939V202.958H309.097V204H304.634V197.743H309.081V198.795H305.939V200.246H308.635V201.293ZM312.288 199.907L313.587 197.743H315.113L313.099 200.847L315.226 204H313.679L312.309 201.803L310.966 204H309.441L311.509 200.847L309.489 197.743H311.004L312.288 199.907ZM317.272 201.803V204H315.967V197.743H318.572C319.331 197.743 319.936 197.934 320.387 198.317C320.842 198.697 321.069 199.196 321.069 199.816C321.069 200.421 320.853 200.901 320.419 201.255C319.99 201.61 319.395 201.792 318.636 201.803H317.272ZM317.272 200.75H318.572C318.944 200.75 319.236 200.672 319.447 200.514C319.662 200.357 319.77 200.127 319.77 199.827C319.77 199.515 319.66 199.266 319.442 199.08C319.227 198.89 318.939 198.795 318.577 198.795H317.272V200.75ZM325.887 202.663H323.298L322.788 204H321.472L324.002 197.743H325.2L327.719 204H326.397L325.887 202.663ZM323.68 201.669H325.506L324.593 199.295L323.68 201.669ZM333.826 204H332.526L329.711 199.73V204H328.406V197.743H329.711L332.526 202.018V197.743H333.826V204ZM335.099 204V197.743H337.134C337.722 197.743 338.246 197.866 338.708 198.113C339.174 198.36 339.535 198.709 339.793 199.161C340.051 199.608 340.183 200.117 340.19 200.686V201.014C340.19 201.597 340.062 202.117 339.804 202.571C339.549 203.026 339.186 203.379 338.713 203.629C338.244 203.876 337.709 204 337.107 204H335.099ZM336.404 198.795V202.958H337.102C338.273 202.958 338.869 202.335 338.891 201.089V200.729C338.891 199.469 338.334 198.824 337.22 198.795H336.404Z" fill="#745F5F"/>
<path d="M304 205.074H340.62V205.611H304V205.074Z" fill="#745F5F"/>
<path d="M88.4521 160H86.2285L80.5244 150.921V160H78.3008V147.203H80.5244L86.2461 156.317V147.203H88.4521V160ZM90.4736 155.157C90.4736 154.226 90.6582 153.388 91.0273 152.644C91.3965 151.894 91.915 151.319 92.583 150.921C93.251 150.517 94.0186 150.314 94.8857 150.314C96.1689 150.314 97.209 150.728 98.0059 151.554C98.8086 152.38 99.2422 153.476 99.3066 154.841L99.3154 155.342C99.3154 156.279 99.1338 157.117 98.7705 157.855C98.4131 158.594 97.8975 159.165 97.2236 159.569C96.5557 159.974 95.7822 160.176 94.9033 160.176C93.5615 160.176 92.4863 159.73 91.6777 158.84C90.875 157.943 90.4736 156.751 90.4736 155.263V155.157ZM92.6094 155.342C92.6094 156.32 92.8115 157.088 93.2158 157.645C93.6201 158.195 94.1826 158.471 94.9033 158.471C95.624 158.471 96.1836 158.189 96.582 157.627C96.9863 157.064 97.1885 156.241 97.1885 155.157C97.1885 154.196 96.9805 153.435 96.5645 152.872C96.1543 152.31 95.5947 152.028 94.8857 152.028C94.1885 152.028 93.6348 152.307 93.2246 152.863C92.8145 153.414 92.6094 154.24 92.6094 155.342ZM100.722 155.175C100.722 153.71 101.062 152.535 101.741 151.65C102.421 150.76 103.332 150.314 104.475 150.314C105.482 150.314 106.297 150.666 106.918 151.369V146.5H109.054V160H107.12L107.015 159.016C106.376 159.789 105.523 160.176 104.457 160.176C103.344 160.176 102.441 159.728 101.75 158.831C101.064 157.935 100.722 156.716 100.722 155.175ZM102.857 155.359C102.857 156.326 103.042 157.082 103.411 157.627C103.786 158.166 104.316 158.436 105.002 158.436C105.875 158.436 106.514 158.046 106.918 157.267V153.206C106.525 152.444 105.893 152.063 105.02 152.063C104.328 152.063 103.795 152.339 103.42 152.89C103.045 153.435 102.857 154.258 102.857 155.359ZM115.47 160.176C114.116 160.176 113.018 159.751 112.174 158.901C111.336 158.046 110.917 156.909 110.917 155.491V155.228C110.917 154.278 111.099 153.432 111.462 152.688C111.831 151.938 112.347 151.354 113.009 150.938C113.671 150.522 114.409 150.314 115.224 150.314C116.519 150.314 117.518 150.728 118.221 151.554C118.93 152.38 119.284 153.549 119.284 155.061V155.922H113.07C113.135 156.707 113.396 157.328 113.853 157.785C114.315 158.242 114.896 158.471 115.593 158.471C116.571 158.471 117.368 158.075 117.983 157.284L119.135 158.383C118.754 158.951 118.244 159.394 117.605 159.71C116.973 160.021 116.261 160.176 115.47 160.176ZM115.215 152.028C114.629 152.028 114.154 152.233 113.791 152.644C113.434 153.054 113.205 153.625 113.105 154.357H117.175V154.199C117.128 153.484 116.938 152.945 116.604 152.582C116.27 152.213 115.807 152.028 115.215 152.028ZM122.281 157.75C122.68 157.75 122.987 157.864 123.204 158.093C123.421 158.315 123.529 158.597 123.529 158.937C123.529 159.271 123.421 159.549 123.204 159.771C122.987 159.988 122.68 160.097 122.281 160.097C121.9 160.097 121.599 159.988 121.376 159.771C121.153 159.555 121.042 159.276 121.042 158.937C121.042 158.597 121.15 158.315 121.367 158.093C121.584 157.864 121.889 157.75 122.281 157.75ZM128.205 150.49V160.844C128.205 161.816 127.962 162.558 127.476 163.067C126.995 163.583 126.289 163.841 125.357 163.841C124.965 163.841 124.587 163.791 124.224 163.691V162.004C124.446 162.057 124.698 162.083 124.979 162.083C125.688 162.083 126.052 161.696 126.069 160.923V150.49H128.205ZM125.885 148.021C125.885 147.692 125.987 147.42 126.192 147.203C126.403 146.986 126.702 146.878 127.089 146.878C127.476 146.878 127.774 146.986 127.985 147.203C128.196 147.42 128.302 147.692 128.302 148.021C128.302 148.343 128.196 148.612 127.985 148.829C127.774 149.04 127.476 149.146 127.089 149.146C126.702 149.146 126.403 149.04 126.192 148.829C125.987 148.612 125.885 148.343 125.885 148.021ZM135.825 157.416C135.825 157.035 135.667 156.745 135.351 156.546C135.04 156.347 134.521 156.171 133.795 156.019C133.068 155.866 132.462 155.673 131.976 155.438C130.909 154.923 130.376 154.176 130.376 153.197C130.376 152.377 130.722 151.691 131.413 151.141C132.104 150.59 132.983 150.314 134.05 150.314C135.187 150.314 136.104 150.596 136.801 151.158C137.504 151.721 137.855 152.45 137.855 153.347H135.72C135.72 152.937 135.567 152.597 135.263 152.327C134.958 152.052 134.554 151.914 134.05 151.914C133.581 151.914 133.197 152.022 132.898 152.239C132.605 152.456 132.459 152.746 132.459 153.109C132.459 153.438 132.597 153.692 132.872 153.874C133.147 154.056 133.704 154.24 134.542 154.428C135.38 154.609 136.036 154.829 136.511 155.087C136.991 155.339 137.346 155.644 137.574 156.001C137.809 156.358 137.926 156.792 137.926 157.302C137.926 158.157 137.571 158.852 136.862 159.385C136.153 159.912 135.225 160.176 134.076 160.176C133.297 160.176 132.603 160.035 131.993 159.754C131.384 159.473 130.909 159.086 130.569 158.594C130.229 158.102 130.06 157.571 130.06 157.003H132.134C132.163 157.507 132.354 157.896 132.705 158.172C133.057 158.441 133.522 158.576 134.103 158.576C134.665 158.576 135.093 158.471 135.386 158.26C135.679 158.043 135.825 157.762 135.825 157.416ZM144.482 160V147.203H148.262C149.393 147.203 150.395 147.455 151.268 147.959C152.146 148.463 152.826 149.178 153.307 150.104C153.787 151.029 154.027 152.09 154.027 153.285V153.927C154.027 155.14 153.784 156.206 153.298 157.126C152.817 158.046 152.129 158.755 151.232 159.253C150.342 159.751 149.319 160 148.165 160H144.482ZM146.706 148.996V158.225H148.156C149.322 158.225 150.216 157.861 150.837 157.135C151.464 156.402 151.783 155.354 151.795 153.988V153.276C151.795 151.888 151.493 150.827 150.89 150.095C150.286 149.362 149.41 148.996 148.262 148.996H146.706ZM160.224 160.176C158.87 160.176 157.771 159.751 156.928 158.901C156.09 158.046 155.671 156.909 155.671 155.491V155.228C155.671 154.278 155.853 153.432 156.216 152.688C156.585 151.938 157.101 151.354 157.763 150.938C158.425 150.522 159.163 150.314 159.978 150.314C161.272 150.314 162.271 150.728 162.975 151.554C163.684 152.38 164.038 153.549 164.038 155.061V155.922H157.824C157.889 156.707 158.149 157.328 158.606 157.785C159.069 158.242 159.649 158.471 160.347 158.471C161.325 158.471 162.122 158.075 162.737 157.284L163.889 158.383C163.508 158.951 162.998 159.394 162.359 159.71C161.727 160.021 161.015 160.176 160.224 160.176ZM159.969 152.028C159.383 152.028 158.908 152.233 158.545 152.644C158.188 153.054 157.959 153.625 157.859 154.357H161.929V154.199C161.882 153.484 161.691 152.945 161.357 152.582C161.023 152.213 160.561 152.028 159.969 152.028ZM168.934 157.293L170.946 150.49H173.152L169.856 160H168.002L164.68 150.49H166.895L168.934 157.293ZM178.558 160.176C177.204 160.176 176.105 159.751 175.262 158.901C174.424 158.046 174.005 156.909 174.005 155.491V155.228C174.005 154.278 174.187 153.432 174.55 152.688C174.919 151.938 175.435 151.354 176.097 150.938C176.759 150.522 177.497 150.314 178.312 150.314C179.606 150.314 180.605 150.728 181.309 151.554C182.018 152.38 182.372 153.549 182.372 155.061V155.922H176.158C176.223 156.707 176.483 157.328 176.94 157.785C177.403 158.242 177.983 158.471 178.681 158.471C179.659 158.471 180.456 158.075 181.071 157.284L182.223 158.383C181.842 158.951 181.332 159.394 180.693 159.71C180.061 160.021 179.349 160.176 178.558 160.176ZM178.303 152.028C177.717 152.028 177.242 152.233 176.879 152.644C176.521 153.054 176.293 153.625 176.193 154.357H180.263V154.199C180.216 153.484 180.025 152.945 179.691 152.582C179.357 152.213 178.895 152.028 178.303 152.028ZM186.31 160H184.174V146.5H186.31V160ZM188.243 155.157C188.243 154.226 188.428 153.388 188.797 152.644C189.166 151.894 189.685 151.319 190.353 150.921C191.021 150.517 191.788 150.314 192.655 150.314C193.938 150.314 194.979 150.728 195.775 151.554C196.578 152.38 197.012 153.476 197.076 154.841L197.085 155.342C197.085 156.279 196.903 157.117 196.54 157.855C196.183 158.594 195.667 159.165 194.993 159.569C194.325 159.974 193.552 160.176 192.673 160.176C191.331 160.176 190.256 159.73 189.447 158.84C188.645 157.943 188.243 156.751 188.243 155.263V155.157ZM190.379 155.342C190.379 156.32 190.581 157.088 190.985 157.645C191.39 158.195 191.952 158.471 192.673 158.471C193.394 158.471 193.953 158.189 194.352 157.627C194.756 157.064 194.958 156.241 194.958 155.157C194.958 154.196 194.75 153.435 194.334 152.872C193.924 152.31 193.364 152.028 192.655 152.028C191.958 152.028 191.404 152.307 190.994 152.863C190.584 153.414 190.379 154.24 190.379 155.342ZM207.219 155.342C207.219 156.812 206.885 157.987 206.217 158.866C205.549 159.739 204.652 160.176 203.527 160.176C202.484 160.176 201.649 159.833 201.022 159.147V163.656H198.887V150.49H200.855L200.943 151.457C201.57 150.695 202.423 150.314 203.501 150.314C204.661 150.314 205.569 150.748 206.226 151.615C206.888 152.477 207.219 153.675 207.219 155.21V155.342ZM205.092 155.157C205.092 154.208 204.901 153.455 204.521 152.898C204.146 152.342 203.606 152.063 202.903 152.063C202.03 152.063 201.403 152.424 201.022 153.145V157.363C201.409 158.102 202.042 158.471 202.921 158.471C203.601 158.471 204.131 158.198 204.512 157.653C204.898 157.103 205.092 156.271 205.092 155.157ZM213.222 160.176C211.868 160.176 210.77 159.751 209.926 158.901C209.088 158.046 208.669 156.909 208.669 155.491V155.228C208.669 154.278 208.851 153.432 209.214 152.688C209.583 151.938 210.099 151.354 210.761 150.938C211.423 150.522 212.161 150.314 212.976 150.314C214.271 150.314 215.27 150.728 215.973 151.554C216.682 152.38 217.036 153.549 217.036 155.061V155.922H210.822C210.887 156.707 211.147 157.328 211.604 157.785C212.067 158.242 212.647 158.471 213.345 158.471C214.323 158.471 215.12 158.075 215.735 157.284L216.887 158.383C216.506 158.951 215.996 159.394 215.357 159.71C214.725 160.021 214.013 160.176 213.222 160.176ZM212.967 152.028C212.381 152.028 211.906 152.233 211.543 152.644C211.186 153.054 210.957 153.625 210.857 154.357H214.927V154.199C214.88 153.484 214.689 152.945 214.355 152.582C214.021 152.213 213.559 152.028 212.967 152.028ZM223.681 152.441C223.399 152.395 223.109 152.371 222.811 152.371C221.832 152.371 221.173 152.746 220.833 153.496V160H218.697V150.49H220.736L220.789 151.554C221.305 150.728 222.02 150.314 222.934 150.314C223.238 150.314 223.49 150.355 223.689 150.438L223.681 152.441ZM370.37 162.373H368.902V147.203H370.37V162.373ZM480.77 160V147.203H485.155C486.603 147.203 487.704 147.493 488.46 148.073C489.216 148.653 489.594 149.518 489.594 150.666C489.594 151.252 489.436 151.779 489.119 152.248C488.803 152.717 488.34 153.08 487.73 153.338C488.422 153.525 488.955 153.88 489.33 154.401C489.711 154.917 489.901 155.538 489.901 156.265C489.901 157.466 489.515 158.389 488.741 159.033C487.974 159.678 486.872 160 485.437 160H480.77ZM482.993 154.226V158.225H485.463C486.16 158.225 486.705 158.052 487.098 157.706C487.49 157.36 487.687 156.88 487.687 156.265C487.687 154.935 487.007 154.255 485.647 154.226H482.993ZM482.993 152.591H485.173C485.864 152.591 486.403 152.436 486.79 152.125C487.183 151.809 487.379 151.363 487.379 150.789C487.379 150.156 487.197 149.699 486.834 149.418C486.477 149.137 485.917 148.996 485.155 148.996H482.993V152.591ZM496.897 152.441C496.616 152.395 496.326 152.371 496.027 152.371C495.049 152.371 494.39 152.746 494.05 153.496V160H491.914V150.49H493.953L494.006 151.554C494.521 150.728 495.236 150.314 496.15 150.314C496.455 150.314 496.707 150.355 496.906 150.438L496.897 152.441ZM497.53 155.157C497.53 154.226 497.715 153.388 498.084 152.644C498.453 151.894 498.972 151.319 499.64 150.921C500.308 150.517 501.075 150.314 501.942 150.314C503.226 150.314 504.266 150.728 505.062 151.554C505.865 152.38 506.299 153.476 506.363 154.841L506.372 155.342C506.372 156.279 506.19 157.117 505.827 157.855C505.47 158.594 504.954 159.165 504.28 159.569C503.612 159.974 502.839 160.176 501.96 160.176C500.618 160.176 499.543 159.73 498.734 158.84C497.932 157.943 497.53 156.751 497.53 155.263V155.157ZM499.666 155.342C499.666 156.32 499.868 157.088 500.272 157.645C500.677 158.195 501.239 158.471 501.96 158.471C502.681 158.471 503.24 158.189 503.639 157.627C504.043 157.064 504.245 156.241 504.245 155.157C504.245 154.196 504.037 153.435 503.621 152.872C503.211 152.31 502.651 152.028 501.942 152.028C501.245 152.028 500.691 152.307 500.281 152.863C499.871 153.414 499.666 154.24 499.666 155.342ZM507.778 155.157C507.778 154.226 507.963 153.388 508.332 152.644C508.701 151.894 509.22 151.319 509.888 150.921C510.556 150.517 511.323 150.314 512.19 150.314C513.474 150.314 514.514 150.728 515.311 151.554C516.113 152.38 516.547 153.476 516.611 154.841L516.62 155.342C516.62 156.279 516.438 157.117 516.075 157.855C515.718 158.594 515.202 159.165 514.528 159.569C513.86 159.974 513.087 160.176 512.208 160.176C510.866 160.176 509.791 159.73 508.982 158.84C508.18 157.943 507.778 156.751 507.778 155.263V155.157ZM509.914 155.342C509.914 156.32 510.116 157.088 510.521 157.645C510.925 158.195 511.487 158.471 512.208 158.471C512.929 158.471 513.488 158.189 513.887 157.627C514.291 157.064 514.493 156.241 514.493 155.157C514.493 154.196 514.285 153.435 513.869 152.872C513.459 152.31 512.899 152.028 512.19 152.028C511.493 152.028 510.939 152.307 510.529 152.863C510.119 153.414 509.914 154.24 509.914 155.342ZM521.516 155.922L520.566 156.897V160H518.431V146.5H520.566V154.287L521.234 153.452L523.862 150.49H526.429L522.896 154.454L526.807 160H524.337L521.516 155.922ZM530.103 160H527.967V146.5H530.103V160ZM535.763 156.941L537.696 150.49H539.973L536.193 161.441C535.613 163.041 534.629 163.841 533.24 163.841C532.93 163.841 532.587 163.788 532.212 163.683V162.03L532.616 162.057C533.155 162.057 533.56 161.957 533.829 161.758C534.104 161.564 534.321 161.236 534.479 160.773L534.787 159.956L531.447 150.49H533.75L535.763 156.941ZM543.189 150.49L543.251 151.589C543.954 150.739 544.877 150.314 546.02 150.314C548 150.314 549.008 151.448 549.043 153.716V160H546.907V153.839C546.907 153.235 546.775 152.79 546.512 152.503C546.254 152.21 545.829 152.063 545.237 152.063C544.376 152.063 543.734 152.453 543.312 153.232V160H541.177V150.49H543.189Z" fill="#745F5F"/>
<path d="M586.039 172.613H590.492V175.215H586.039V180.289H583.273V175.215H578.797V172.613H583.273V167.867H586.039V172.613Z" fill="#745F5F"/>
<path d="M94.0859 175.047H95.8086V182.026C95.8086 182.979 95.5101 183.735 94.9131 184.296C94.3206 184.856 93.5368 185.137 92.5615 185.137C91.5225 185.137 90.7204 184.875 90.1553 184.351C89.5902 183.826 89.3076 183.097 89.3076 182.163H91.0303C91.0303 182.692 91.1602 183.09 91.4199 183.359C91.6842 183.624 92.0648 183.756 92.5615 183.756C93.0264 183.756 93.3955 183.603 93.6689 183.298C93.9469 182.988 94.0859 182.562 94.0859 182.02V175.047ZM97.3193 181.233C97.3193 180.509 97.4629 179.857 97.75 179.278C98.0371 178.695 98.4404 178.248 98.96 177.938C99.4795 177.624 100.076 177.467 100.751 177.467C101.749 177.467 102.558 177.788 103.178 178.431C103.802 179.073 104.139 179.925 104.189 180.987L104.196 181.377C104.196 182.106 104.055 182.758 103.772 183.332C103.494 183.906 103.093 184.351 102.569 184.665C102.05 184.979 101.448 185.137 100.765 185.137C99.721 185.137 98.8848 184.79 98.2559 184.098C97.6315 183.4 97.3193 182.473 97.3193 181.315V181.233ZM98.9805 181.377C98.9805 182.138 99.1377 182.735 99.4521 183.168C99.7666 183.596 100.204 183.811 100.765 183.811C101.325 183.811 101.76 183.592 102.07 183.154C102.385 182.717 102.542 182.076 102.542 181.233C102.542 180.486 102.38 179.894 102.057 179.456C101.738 179.019 101.302 178.8 100.751 178.8C100.209 178.8 99.778 179.016 99.459 179.449C99.14 179.878 98.9805 180.52 98.9805 181.377ZM112.092 181.377C112.092 182.525 111.834 183.439 111.319 184.118C110.809 184.797 110.105 185.137 109.207 185.137C108.341 185.137 107.667 184.825 107.184 184.2L107.102 185H105.598V174.5H107.259V178.314C107.737 177.749 108.382 177.467 109.193 177.467C110.096 177.467 110.804 177.802 111.319 178.472C111.834 179.142 112.092 180.078 112.092 181.281V181.377ZM110.431 181.233C110.431 180.431 110.289 179.83 110.007 179.429C109.724 179.028 109.314 178.827 108.776 178.827C108.056 178.827 107.55 179.142 107.259 179.771V182.819C107.555 183.462 108.065 183.783 108.79 183.783C109.31 183.783 109.711 183.59 109.993 183.202C110.276 182.815 110.422 182.229 110.431 181.445V181.233ZM122.708 182.683H118.853L118.046 185H116.248L120.008 175.047H121.56L125.326 185H123.521L122.708 182.683ZM119.338 181.288H122.223L120.78 177.159L119.338 181.288ZM130.446 182.99C130.446 182.694 130.323 182.468 130.077 182.313C129.836 182.159 129.432 182.022 128.867 181.903C128.302 181.785 127.83 181.634 127.452 181.452C126.623 181.051 126.208 180.47 126.208 179.709C126.208 179.071 126.477 178.538 127.015 178.109C127.552 177.681 128.236 177.467 129.065 177.467C129.95 177.467 130.663 177.686 131.205 178.123C131.752 178.561 132.025 179.128 132.025 179.825H130.364C130.364 179.506 130.246 179.242 130.009 179.032C129.772 178.818 129.457 178.711 129.065 178.711C128.701 178.711 128.402 178.795 128.17 178.964C127.942 179.132 127.828 179.358 127.828 179.641C127.828 179.896 127.935 180.094 128.149 180.235C128.364 180.377 128.797 180.52 129.448 180.666C130.1 180.807 130.61 180.978 130.979 181.179C131.353 181.375 131.629 181.612 131.807 181.89C131.989 182.168 132.08 182.505 132.08 182.901C132.08 183.567 131.804 184.107 131.253 184.521C130.701 184.932 129.979 185.137 129.086 185.137C128.48 185.137 127.94 185.027 127.466 184.809C126.992 184.59 126.623 184.289 126.358 183.906C126.094 183.523 125.962 183.111 125.962 182.669H127.575C127.598 183.061 127.746 183.364 128.02 183.578C128.293 183.788 128.655 183.893 129.106 183.893C129.544 183.893 129.877 183.811 130.104 183.646C130.332 183.478 130.446 183.259 130.446 182.99ZM137.679 182.99C137.679 182.694 137.556 182.468 137.31 182.313C137.068 182.159 136.665 182.022 136.1 181.903C135.535 181.785 135.063 181.634 134.685 181.452C133.855 181.051 133.44 180.47 133.44 179.709C133.44 179.071 133.709 178.538 134.247 178.109C134.785 177.681 135.468 177.467 136.298 177.467C137.182 177.467 137.895 177.686 138.438 178.123C138.984 178.561 139.258 179.128 139.258 179.825H137.597C137.597 179.506 137.478 179.242 137.241 179.032C137.004 178.818 136.69 178.711 136.298 178.711C135.933 178.711 135.635 178.795 135.402 178.964C135.174 179.132 135.061 179.358 135.061 179.641C135.061 179.896 135.168 180.094 135.382 180.235C135.596 180.377 136.029 180.52 136.681 180.666C137.332 180.807 137.843 180.978 138.212 181.179C138.586 181.375 138.861 181.612 139.039 181.89C139.221 182.168 139.312 182.505 139.312 182.901C139.312 183.567 139.037 184.107 138.485 184.521C137.934 184.932 137.212 185.137 136.318 185.137C135.712 185.137 135.172 185.027 134.698 184.809C134.224 184.59 133.855 184.289 133.591 183.906C133.326 183.523 133.194 183.111 133.194 182.669H134.808C134.83 183.061 134.979 183.364 135.252 183.578C135.525 183.788 135.888 183.893 136.339 183.893C136.776 183.893 137.109 183.811 137.337 183.646C137.565 183.478 137.679 183.259 137.679 182.99ZM142.532 185H140.871V177.604H142.532V185ZM140.769 175.683C140.769 175.427 140.848 175.215 141.008 175.047C141.172 174.878 141.404 174.794 141.705 174.794C142.006 174.794 142.238 174.878 142.402 175.047C142.566 175.215 142.648 175.427 142.648 175.683C142.648 175.933 142.566 176.143 142.402 176.312C142.238 176.476 142.006 176.558 141.705 176.558C141.404 176.558 141.172 176.476 141.008 176.312C140.848 176.143 140.769 175.933 140.769 175.683ZM148.493 182.99C148.493 182.694 148.37 182.468 148.124 182.313C147.882 182.159 147.479 182.022 146.914 181.903C146.349 181.785 145.877 181.634 145.499 181.452C144.67 181.051 144.255 180.47 144.255 179.709C144.255 179.071 144.524 178.538 145.062 178.109C145.599 177.681 146.283 177.467 147.112 177.467C147.996 177.467 148.71 177.686 149.252 178.123C149.799 178.561 150.072 179.128 150.072 179.825H148.411C148.411 179.506 148.293 179.242 148.056 179.032C147.819 178.818 147.504 178.711 147.112 178.711C146.748 178.711 146.449 178.795 146.217 178.964C145.989 179.132 145.875 179.358 145.875 179.641C145.875 179.896 145.982 180.094 146.196 180.235C146.41 180.377 146.843 180.52 147.495 180.666C148.147 180.807 148.657 180.978 149.026 181.179C149.4 181.375 149.676 181.612 149.854 181.89C150.036 182.168 150.127 182.505 150.127 182.901C150.127 183.567 149.851 184.107 149.3 184.521C148.748 184.932 148.026 185.137 147.133 185.137C146.527 185.137 145.987 185.027 145.513 184.809C145.039 184.59 144.67 184.289 144.405 183.906C144.141 183.523 144.009 183.111 144.009 182.669H145.622C145.645 183.061 145.793 183.364 146.066 183.578C146.34 183.788 146.702 183.893 147.153 183.893C147.591 183.893 147.924 183.811 148.151 183.646C148.379 183.478 148.493 183.259 148.493 182.99ZM153.661 175.806V177.604H154.967V178.834H153.661V182.963C153.661 183.245 153.716 183.451 153.825 183.578C153.939 183.701 154.14 183.763 154.427 183.763C154.618 183.763 154.812 183.74 155.008 183.694V184.979C154.63 185.084 154.265 185.137 153.914 185.137C152.638 185.137 152 184.433 152 183.024V178.834H150.783V177.604H152V175.806H153.661Z" fill="#8F7575"/>
<rect x="60" y="239" width="544" height="77" rx="3" fill="#C4C4C4"/>
<path d="M308.635 304.293H305.939V305.958H309.097V307H304.634V300.743H309.081V301.795H305.939V303.246H308.635V304.293ZM312.288 302.907L313.587 300.743H315.113L313.099 303.847L315.226 307H313.679L312.309 304.803L310.966 307H309.441L311.509 303.847L309.489 300.743H311.004L312.288 302.907ZM317.272 304.803V307H315.967V300.743H318.572C319.331 300.743 319.936 300.934 320.387 301.317C320.842 301.697 321.069 302.196 321.069 302.816C321.069 303.421 320.853 303.901 320.419 304.255C319.99 304.61 319.395 304.792 318.636 304.803H317.272ZM317.272 303.75H318.572C318.944 303.75 319.236 303.672 319.447 303.514C319.662 303.357 319.77 303.127 319.77 302.827C319.77 302.515 319.66 302.266 319.442 302.08C319.227 301.89 318.939 301.795 318.577 301.795H317.272V303.75ZM325.887 305.663H323.298L322.788 307H321.472L324.002 300.743H325.2L327.719 307H326.397L325.887 305.663ZM323.68 304.669H325.506L324.593 302.295L323.68 304.669ZM333.826 307H332.526L329.711 302.73V307H328.406V300.743H329.711L332.526 305.018V300.743H333.826V307ZM335.099 307V300.743H337.134C337.722 300.743 338.246 300.866 338.708 301.113C339.174 301.36 339.535 301.709 339.793 302.161C340.051 302.608 340.183 303.117 340.19 303.686V304.014C340.19 304.597 340.062 305.117 339.804 305.571C339.549 306.026 339.186 306.379 338.713 306.629C338.244 306.876 337.709 307 337.107 307H335.099ZM336.404 301.795V305.958H337.102C338.273 305.958 338.869 305.335 338.891 304.089V303.729C338.891 302.469 338.334 301.824 337.22 301.795H336.404Z" fill="#745F5F"/>
<path d="M304 308.074H340.62V308.611H304V308.074Z" fill="#745F5F"/>
<path d="M83.5391 250.203H85.7539V259.177C85.7539 260.401 85.3701 261.374 84.6025 262.095C83.8408 262.815 82.833 263.176 81.5791 263.176C80.2432 263.176 79.2119 262.839 78.4854 262.165C77.7588 261.491 77.3955 260.554 77.3955 259.353H79.6104C79.6104 260.032 79.7773 260.545 80.1113 260.891C80.4512 261.23 80.9404 261.4 81.5791 261.4C82.1768 261.4 82.6514 261.204 83.0029 260.812C83.3604 260.413 83.5391 259.865 83.5391 259.168V250.203ZM93.7783 263C93.6846 262.818 93.6025 262.522 93.5322 262.112C92.8525 262.821 92.0205 263.176 91.0361 263.176C90.0811 263.176 89.3018 262.903 88.6982 262.358C88.0947 261.813 87.793 261.14 87.793 260.337C87.793 259.323 88.168 258.547 88.918 258.008C89.6738 257.463 90.752 257.19 92.1523 257.19H93.4619V256.566C93.4619 256.074 93.3242 255.682 93.0488 255.389C92.7734 255.09 92.3545 254.94 91.792 254.94C91.3057 254.94 90.9072 255.063 90.5967 255.31C90.2861 255.55 90.1309 255.857 90.1309 256.232H87.9951C87.9951 255.711 88.168 255.225 88.5137 254.773C88.8594 254.316 89.3281 253.959 89.9199 253.701C90.5176 253.443 91.1826 253.314 91.915 253.314C93.0283 253.314 93.916 253.596 94.5781 254.158C95.2402 254.715 95.5801 255.5 95.5977 256.514V260.803C95.5977 261.658 95.7178 262.341 95.958 262.851V263H93.7783ZM91.4316 261.462C91.8535 261.462 92.249 261.359 92.6182 261.154C92.9932 260.949 93.2744 260.674 93.4619 260.328V258.535H92.3105C91.5195 258.535 90.9248 258.673 90.5264 258.948C90.1279 259.224 89.9287 259.613 89.9287 260.117C89.9287 260.527 90.0635 260.855 90.333 261.102C90.6084 261.342 90.9746 261.462 91.4316 261.462ZM101.047 260.293L103.06 253.49H105.266L101.97 263H100.115L96.793 253.49H99.0078L101.047 260.293ZM112.147 263C112.054 262.818 111.972 262.522 111.901 262.112C111.222 262.821 110.39 263.176 109.405 263.176C108.45 263.176 107.671 262.903 107.067 262.358C106.464 261.813 106.162 261.14 106.162 260.337C106.162 259.323 106.537 258.547 107.287 258.008C108.043 257.463 109.121 257.19 110.521 257.19H111.831V256.566C111.831 256.074 111.693 255.682 111.418 255.389C111.143 255.09 110.724 254.94 110.161 254.94C109.675 254.94 109.276 255.063 108.966 255.31C108.655 255.55 108.5 255.857 108.5 256.232H106.364C106.364 255.711 106.537 255.225 106.883 254.773C107.229 254.316 107.697 253.959 108.289 253.701C108.887 253.443 109.552 253.314 110.284 253.314C111.397 253.314 112.285 253.596 112.947 254.158C113.609 254.715 113.949 255.5 113.967 256.514V260.803C113.967 261.658 114.087 262.341 114.327 262.851V263H112.147ZM109.801 261.462C110.223 261.462 110.618 261.359 110.987 261.154C111.362 260.949 111.644 260.674 111.831 260.328V258.535H110.68C109.889 258.535 109.294 258.673 108.896 258.948C108.497 259.224 108.298 259.613 108.298 260.117C108.298 260.527 108.433 260.855 108.702 261.102C108.978 261.342 109.344 261.462 109.801 261.462ZM120.893 263V250.203H124.672C125.803 250.203 126.805 250.455 127.678 250.959C128.557 251.463 129.236 252.178 129.717 253.104C130.197 254.029 130.438 255.09 130.438 256.285V256.927C130.438 258.14 130.194 259.206 129.708 260.126C129.228 261.046 128.539 261.755 127.643 262.253C126.752 262.751 125.729 263 124.575 263H120.893ZM123.116 251.996V261.225H124.566C125.732 261.225 126.626 260.861 127.247 260.135C127.874 259.402 128.193 258.354 128.205 256.988V256.276C128.205 254.888 127.903 253.827 127.3 253.095C126.696 252.362 125.82 251.996 124.672 251.996H123.116ZM136.634 263.176C135.28 263.176 134.182 262.751 133.338 261.901C132.5 261.046 132.081 259.909 132.081 258.491V258.228C132.081 257.278 132.263 256.432 132.626 255.688C132.995 254.938 133.511 254.354 134.173 253.938C134.835 253.522 135.573 253.314 136.388 253.314C137.683 253.314 138.682 253.728 139.385 254.554C140.094 255.38 140.448 256.549 140.448 258.061V258.922H134.234C134.299 259.707 134.56 260.328 135.017 260.785C135.479 261.242 136.06 261.471 136.757 261.471C137.735 261.471 138.532 261.075 139.147 260.284L140.299 261.383C139.918 261.951 139.408 262.394 138.77 262.71C138.137 263.021 137.425 263.176 136.634 263.176ZM136.379 255.028C135.793 255.028 135.318 255.233 134.955 255.644C134.598 256.054 134.369 256.625 134.27 257.357H138.339V257.199C138.292 256.484 138.102 255.945 137.768 255.582C137.434 255.213 136.971 255.028 136.379 255.028ZM145.344 260.293L147.356 253.49H149.562L146.267 263H144.412L141.09 253.49H143.305L145.344 260.293ZM154.968 263.176C153.614 263.176 152.516 262.751 151.672 261.901C150.834 261.046 150.415 259.909 150.415 258.491V258.228C150.415 257.278 150.597 256.432 150.96 255.688C151.329 254.938 151.845 254.354 152.507 253.938C153.169 253.522 153.907 253.314 154.722 253.314C156.017 253.314 157.016 253.728 157.719 254.554C158.428 255.38 158.782 256.549 158.782 258.061V258.922H152.568C152.633 259.707 152.894 260.328 153.351 260.785C153.813 261.242 154.394 261.471 155.091 261.471C156.069 261.471 156.866 261.075 157.481 260.284L158.633 261.383C158.252 261.951 157.742 262.394 157.104 262.71C156.471 263.021 155.759 263.176 154.968 263.176ZM154.713 255.028C154.127 255.028 153.652 255.233 153.289 255.644C152.932 256.054 152.703 256.625 152.604 257.357H156.673V257.199C156.626 256.484 156.436 255.945 156.102 255.582C155.768 255.213 155.305 255.028 154.713 255.028ZM162.72 263H160.584V249.5H162.72V263ZM164.653 258.157C164.653 257.226 164.838 256.388 165.207 255.644C165.576 254.894 166.095 254.319 166.763 253.921C167.431 253.517 168.198 253.314 169.065 253.314C170.349 253.314 171.389 253.728 172.186 254.554C172.988 255.38 173.422 256.476 173.486 257.841L173.495 258.342C173.495 259.279 173.313 260.117 172.95 260.855C172.593 261.594 172.077 262.165 171.403 262.569C170.735 262.974 169.962 263.176 169.083 263.176C167.741 263.176 166.666 262.73 165.857 261.84C165.055 260.943 164.653 259.751 164.653 258.263V258.157ZM166.789 258.342C166.789 259.32 166.991 260.088 167.396 260.645C167.8 261.195 168.362 261.471 169.083 261.471C169.804 261.471 170.363 261.189 170.762 260.627C171.166 260.064 171.368 259.241 171.368 258.157C171.368 257.196 171.16 256.435 170.744 255.872C170.334 255.31 169.774 255.028 169.065 255.028C168.368 255.028 167.814 255.307 167.404 255.863C166.994 256.414 166.789 257.24 166.789 258.342ZM183.629 258.342C183.629 259.812 183.295 260.987 182.627 261.866C181.959 262.739 181.062 263.176 179.938 263.176C178.895 263.176 178.06 262.833 177.433 262.147V266.656H175.297V253.49H177.266L177.354 254.457C177.98 253.695 178.833 253.314 179.911 253.314C181.071 253.314 181.979 253.748 182.636 254.615C183.298 255.477 183.629 256.675 183.629 258.21V258.342ZM181.502 258.157C181.502 257.208 181.312 256.455 180.931 255.898C180.556 255.342 180.017 255.063 179.313 255.063C178.44 255.063 177.813 255.424 177.433 256.145V260.363C177.819 261.102 178.452 261.471 179.331 261.471C180.011 261.471 180.541 261.198 180.922 260.653C181.309 260.103 181.502 259.271 181.502 258.157ZM189.632 263.176C188.278 263.176 187.18 262.751 186.336 261.901C185.498 261.046 185.079 259.909 185.079 258.491V258.228C185.079 257.278 185.261 256.432 185.624 255.688C185.993 254.938 186.509 254.354 187.171 253.938C187.833 253.522 188.571 253.314 189.386 253.314C190.681 253.314 191.68 253.728 192.383 254.554C193.092 255.38 193.446 256.549 193.446 258.061V258.922H187.232C187.297 259.707 187.558 260.328 188.015 260.785C188.478 261.242 189.058 261.471 189.755 261.471C190.733 261.471 191.53 261.075 192.146 260.284L193.297 261.383C192.916 261.951 192.406 262.394 191.768 262.71C191.135 263.021 190.423 263.176 189.632 263.176ZM189.377 255.028C188.791 255.028 188.316 255.233 187.953 255.644C187.596 256.054 187.367 256.625 187.268 257.357H191.337V257.199C191.29 256.484 191.1 255.945 190.766 255.582C190.432 255.213 189.969 255.028 189.377 255.028ZM200.091 255.441C199.81 255.395 199.52 255.371 199.221 255.371C198.242 255.371 197.583 255.746 197.243 256.496V263H195.107V253.49H197.146L197.199 254.554C197.715 253.728 198.43 253.314 199.344 253.314C199.648 253.314 199.9 253.355 200.1 253.438L200.091 255.441ZM373.675 265.373H372.207V250.203H373.675V265.373ZM494.226 263H492.002L486.298 253.921V263H484.074V250.203H486.298L492.02 259.317V250.203H494.226V263ZM500.835 263.176C499.481 263.176 498.383 262.751 497.539 261.901C496.701 261.046 496.282 259.909 496.282 258.491V258.228C496.282 257.278 496.464 256.432 496.827 255.688C497.196 254.938 497.712 254.354 498.374 253.938C499.036 253.522 499.774 253.314 500.589 253.314C501.884 253.314 502.883 253.728 503.586 254.554C504.295 255.38 504.649 256.549 504.649 258.061V258.922H498.436C498.5 259.707 498.761 260.328 499.218 260.785C499.681 261.242 500.261 261.471 500.958 261.471C501.937 261.471 502.733 261.075 503.349 260.284L504.5 261.383C504.119 261.951 503.609 262.394 502.971 262.71C502.338 263.021 501.626 263.176 500.835 263.176ZM500.58 255.028C499.994 255.028 499.52 255.233 499.156 255.644C498.799 256.054 498.57 256.625 498.471 257.357H502.54V257.199C502.493 256.484 502.303 255.945 501.969 255.582C501.635 255.213 501.172 255.028 500.58 255.028ZM514.669 260.056L516.181 253.49H518.264L515.671 263H513.913L511.874 256.47L509.87 263H508.112L505.511 253.49H507.594L509.132 259.985L511.083 253.49H512.691L514.669 260.056ZM528.556 256.268L531.5 250.203H533.961L529.672 258.289V263H527.439V258.289L523.142 250.203H525.611L528.556 256.268ZM534.163 258.157C534.163 257.226 534.348 256.388 534.717 255.644C535.086 254.894 535.604 254.319 536.272 253.921C536.94 253.517 537.708 253.314 538.575 253.314C539.858 253.314 540.898 253.728 541.695 254.554C542.498 255.38 542.932 256.476 542.996 257.841L543.005 258.342C543.005 259.279 542.823 260.117 542.46 260.855C542.103 261.594 541.587 262.165 540.913 262.569C540.245 262.974 539.472 263.176 538.593 263.176C537.251 263.176 536.176 262.73 535.367 261.84C534.564 260.943 534.163 259.751 534.163 258.263V258.157ZM536.299 258.342C536.299 259.32 536.501 260.088 536.905 260.645C537.31 261.195 537.872 261.471 538.593 261.471C539.313 261.471 539.873 261.189 540.271 260.627C540.676 260.064 540.878 259.241 540.878 258.157C540.878 257.196 540.67 256.435 540.254 255.872C539.844 255.31 539.284 255.028 538.575 255.028C537.878 255.028 537.324 255.307 536.914 255.863C536.504 256.414 536.299 257.24 536.299 258.342ZM549.79 255.441C549.509 255.395 549.219 255.371 548.92 255.371C547.941 255.371 547.282 255.746 546.942 256.496V263H544.807V253.49H546.846L546.898 254.554C547.414 253.728 548.129 253.314 549.043 253.314C549.348 253.314 549.6 253.355 549.799 253.438L549.79 255.441ZM554.229 258.922L553.279 259.897V263H551.144V249.5H553.279V257.287L553.947 256.452L556.575 253.49H559.142L555.608 257.454L559.52 263H557.05L554.229 258.922ZM574.997 258.834C574.868 260.199 574.364 261.266 573.485 262.033C572.606 262.795 571.438 263.176 569.979 263.176C568.959 263.176 568.06 262.936 567.28 262.455C566.507 261.969 565.909 261.28 565.487 260.39C565.065 259.499 564.846 258.465 564.828 257.287V256.092C564.828 254.885 565.042 253.821 565.47 252.901C565.897 251.981 566.51 251.272 567.307 250.774C568.109 250.276 569.035 250.027 570.084 250.027C571.496 250.027 572.633 250.411 573.494 251.179C574.355 251.946 574.856 253.03 574.997 254.431H572.782C572.677 253.511 572.407 252.849 571.974 252.444C571.546 252.034 570.916 251.829 570.084 251.829C569.117 251.829 568.373 252.184 567.852 252.893C567.336 253.596 567.072 254.63 567.061 255.995V257.129C567.061 258.512 567.307 259.566 567.799 260.293C568.297 261.02 569.023 261.383 569.979 261.383C570.852 261.383 571.508 261.187 571.947 260.794C572.387 260.401 572.665 259.748 572.782 258.834H574.997ZM579.058 263H576.922V253.49H579.058V263ZM576.79 251.021C576.79 250.692 576.893 250.42 577.098 250.203C577.309 249.986 577.607 249.878 577.994 249.878C578.381 249.878 578.68 249.986 578.891 250.203C579.102 250.42 579.207 250.692 579.207 251.021C579.207 251.343 579.102 251.612 578.891 251.829C578.68 252.04 578.381 252.146 577.994 252.146C577.607 252.146 577.309 252.04 577.098 251.829C576.893 251.612 576.79 251.343 576.79 251.021ZM584.067 251.179V253.49H585.746V255.072H584.067V260.381C584.067 260.744 584.138 261.008 584.278 261.172C584.425 261.33 584.683 261.409 585.052 261.409C585.298 261.409 585.547 261.38 585.799 261.321V262.974C585.312 263.108 584.844 263.176 584.393 263.176C582.752 263.176 581.932 262.271 581.932 260.46V255.072H580.367V253.49H581.932V251.179H584.067ZM590.712 259.941L592.646 253.49H594.922L591.143 264.441C590.562 266.041 589.578 266.841 588.189 266.841C587.879 266.841 587.536 266.788 587.161 266.683V265.03L587.565 265.057C588.104 265.057 588.509 264.957 588.778 264.758C589.054 264.564 589.271 264.236 589.429 263.773L589.736 262.956L586.396 253.49H588.699L590.712 259.941Z" fill="#745F5F"/>
<path d="M586.039 275.613H590.492V278.215H586.039V283.289H583.273V278.215H578.797V275.613H583.273V270.867H586.039V275.613Z" fill="#745F5F"/>
<path d="M94.0859 278.047H95.8086V285.026C95.8086 285.979 95.5101 286.735 94.9131 287.296C94.3206 287.856 93.5368 288.137 92.5615 288.137C91.5225 288.137 90.7204 287.875 90.1553 287.351C89.5902 286.826 89.3076 286.097 89.3076 285.163H91.0303C91.0303 285.692 91.1602 286.09 91.4199 286.359C91.6842 286.624 92.0648 286.756 92.5615 286.756C93.0264 286.756 93.3955 286.603 93.6689 286.298C93.9469 285.988 94.0859 285.562 94.0859 285.02V278.047ZM97.3193 284.233C97.3193 283.509 97.4629 282.857 97.75 282.278C98.0371 281.695 98.4404 281.248 98.96 280.938C99.4795 280.624 100.076 280.467 100.751 280.467C101.749 280.467 102.558 280.788 103.178 281.431C103.802 282.073 104.139 282.925 104.189 283.987L104.196 284.377C104.196 285.106 104.055 285.758 103.772 286.332C103.494 286.906 103.093 287.351 102.569 287.665C102.05 287.979 101.448 288.137 100.765 288.137C99.721 288.137 98.8848 287.79 98.2559 287.098C97.6315 286.4 97.3193 285.473 97.3193 284.315V284.233ZM98.9805 284.377C98.9805 285.138 99.1377 285.735 99.4521 286.168C99.7666 286.596 100.204 286.811 100.765 286.811C101.325 286.811 101.76 286.592 102.07 286.154C102.385 285.717 102.542 285.076 102.542 284.233C102.542 283.486 102.38 282.894 102.057 282.456C101.738 282.019 101.302 281.8 100.751 281.8C100.209 281.8 99.778 282.016 99.459 282.449C99.14 282.878 98.9805 283.52 98.9805 284.377ZM112.092 284.377C112.092 285.525 111.834 286.439 111.319 287.118C110.809 287.797 110.105 288.137 109.207 288.137C108.341 288.137 107.667 287.825 107.184 287.2L107.102 288H105.598V277.5H107.259V281.314C107.737 280.749 108.382 280.467 109.193 280.467C110.096 280.467 110.804 280.802 111.319 281.472C111.834 282.142 112.092 283.078 112.092 284.281V284.377ZM110.431 284.233C110.431 283.431 110.289 282.83 110.007 282.429C109.724 282.028 109.314 281.827 108.776 281.827C108.056 281.827 107.55 282.142 107.259 282.771V285.819C107.555 286.462 108.065 286.783 108.79 286.783C109.31 286.783 109.711 286.59 109.993 286.202C110.276 285.815 110.422 285.229 110.431 284.445V284.233ZM122.708 285.683H118.853L118.046 288H116.248L120.008 278.047H121.56L125.326 288H123.521L122.708 285.683ZM119.338 284.288H122.223L120.78 280.159L119.338 284.288ZM130.446 285.99C130.446 285.694 130.323 285.468 130.077 285.313C129.836 285.159 129.432 285.022 128.867 284.903C128.302 284.785 127.83 284.634 127.452 284.452C126.623 284.051 126.208 283.47 126.208 282.709C126.208 282.071 126.477 281.538 127.015 281.109C127.552 280.681 128.236 280.467 129.065 280.467C129.95 280.467 130.663 280.686 131.205 281.123C131.752 281.561 132.025 282.128 132.025 282.825H130.364C130.364 282.506 130.246 282.242 130.009 282.032C129.772 281.818 129.457 281.711 129.065 281.711C128.701 281.711 128.402 281.795 128.17 281.964C127.942 282.132 127.828 282.358 127.828 282.641C127.828 282.896 127.935 283.094 128.149 283.235C128.364 283.377 128.797 283.52 129.448 283.666C130.1 283.807 130.61 283.978 130.979 284.179C131.353 284.375 131.629 284.612 131.807 284.89C131.989 285.168 132.08 285.505 132.08 285.901C132.08 286.567 131.804 287.107 131.253 287.521C130.701 287.932 129.979 288.137 129.086 288.137C128.48 288.137 127.94 288.027 127.466 287.809C126.992 287.59 126.623 287.289 126.358 286.906C126.094 286.523 125.962 286.111 125.962 285.669H127.575C127.598 286.061 127.746 286.364 128.02 286.578C128.293 286.788 128.655 286.893 129.106 286.893C129.544 286.893 129.877 286.811 130.104 286.646C130.332 286.478 130.446 286.259 130.446 285.99ZM137.679 285.99C137.679 285.694 137.556 285.468 137.31 285.313C137.068 285.159 136.665 285.022 136.1 284.903C135.535 284.785 135.063 284.634 134.685 284.452C133.855 284.051 133.44 283.47 133.44 282.709C133.44 282.071 133.709 281.538 134.247 281.109C134.785 280.681 135.468 280.467 136.298 280.467C137.182 280.467 137.895 280.686 138.438 281.123C138.984 281.561 139.258 282.128 139.258 282.825H137.597C137.597 282.506 137.478 282.242 137.241 282.032C137.004 281.818 136.69 281.711 136.298 281.711C135.933 281.711 135.635 281.795 135.402 281.964C135.174 282.132 135.061 282.358 135.061 282.641C135.061 282.896 135.168 283.094 135.382 283.235C135.596 283.377 136.029 283.52 136.681 283.666C137.332 283.807 137.843 283.978 138.212 284.179C138.586 284.375 138.861 284.612 139.039 284.89C139.221 285.168 139.312 285.505 139.312 285.901C139.312 286.567 139.037 287.107 138.485 287.521C137.934 287.932 137.212 288.137 136.318 288.137C135.712 288.137 135.172 288.027 134.698 287.809C134.224 287.59 133.855 287.289 133.591 286.906C133.326 286.523 133.194 286.111 133.194 285.669H134.808C134.83 286.061 134.979 286.364 135.252 286.578C135.525 286.788 135.888 286.893 136.339 286.893C136.776 286.893 137.109 286.811 137.337 286.646C137.565 286.478 137.679 286.259 137.679 285.99ZM142.532 288H140.871V280.604H142.532V288ZM140.769 278.683C140.769 278.427 140.848 278.215 141.008 278.047C141.172 277.878 141.404 277.794 141.705 277.794C142.006 277.794 142.238 277.878 142.402 278.047C142.566 278.215 142.648 278.427 142.648 278.683C142.648 278.933 142.566 279.143 142.402 279.312C142.238 279.476 142.006 279.558 141.705 279.558C141.404 279.558 141.172 279.476 141.008 279.312C140.848 279.143 140.769 278.933 140.769 278.683ZM148.493 285.99C148.493 285.694 148.37 285.468 148.124 285.313C147.882 285.159 147.479 285.022 146.914 284.903C146.349 284.785 145.877 284.634 145.499 284.452C144.67 284.051 144.255 283.47 144.255 282.709C144.255 282.071 144.524 281.538 145.062 281.109C145.599 280.681 146.283 280.467 147.112 280.467C147.996 280.467 148.71 280.686 149.252 281.123C149.799 281.561 150.072 282.128 150.072 282.825H148.411C148.411 282.506 148.293 282.242 148.056 282.032C147.819 281.818 147.504 281.711 147.112 281.711C146.748 281.711 146.449 281.795 146.217 281.964C145.989 282.132 145.875 282.358 145.875 282.641C145.875 282.896 145.982 283.094 146.196 283.235C146.41 283.377 146.843 283.52 147.495 283.666C148.147 283.807 148.657 283.978 149.026 284.179C149.4 284.375 149.676 284.612 149.854 284.89C150.036 285.168 150.127 285.505 150.127 285.901C150.127 286.567 149.851 287.107 149.3 287.521C148.748 287.932 148.026 288.137 147.133 288.137C146.527 288.137 145.987 288.027 145.513 287.809C145.039 287.59 144.67 287.289 144.405 286.906C144.141 286.523 144.009 286.111 144.009 285.669H145.622C145.645 286.061 145.793 286.364 146.066 286.578C146.34 286.788 146.702 286.893 147.153 286.893C147.591 286.893 147.924 286.811 148.151 286.646C148.379 286.478 148.493 286.259 148.493 285.99ZM153.661 278.806V280.604H154.967V281.834H153.661V285.963C153.661 286.245 153.716 286.451 153.825 286.578C153.939 286.701 154.14 286.763 154.427 286.763C154.618 286.763 154.812 286.74 155.008 286.694V287.979C154.63 288.084 154.265 288.137 153.914 288.137C152.638 288.137 152 287.433 152 286.024V281.834H150.783V280.604H152V278.806H153.661Z" fill="#8F7575"/>
</svg>
