<svg width="570" height="36" viewBox="0 0 570 36" fill="none" xmlns="http://www.w3.org/2000/svg">
<rect width="570" height="36" rx="18" fill="#C4C4C4"/>
<path d="M26.7155 18.5635C25.5898 18.2399 24.7695 17.8434 24.2545 17.374C23.7441 16.9001 23.4889 16.3167 23.4889 15.624C23.4889 14.8402 23.8011 14.193 24.4254 13.6826C25.0543 13.1676 25.8701 12.9102 26.8727 12.9102C27.5563 12.9102 28.1647 13.0423 28.6979 13.3066C29.2356 13.571 29.6503 13.9355 29.942 14.4004C30.2382 14.8652 30.3864 15.3734 30.3864 15.9248H29.067C29.067 15.3232 28.8756 14.8516 28.4928 14.5098C28.11 14.1634 27.5699 13.9902 26.8727 13.9902C26.2255 13.9902 25.7197 14.1338 25.3551 14.4209C24.9951 14.7035 24.8151 15.0977 24.8151 15.6035C24.8151 16.0091 24.986 16.3532 25.3278 16.6357C25.6741 16.9137 26.2597 17.1689 27.0846 17.4014C27.914 17.6338 28.5612 17.8913 29.026 18.1738C29.4954 18.4518 29.8418 18.7777 30.0651 19.1514C30.2929 19.5251 30.4069 19.9648 30.4069 20.4707C30.4069 21.2773 30.0924 21.9245 29.4635 22.4121C28.8346 22.8952 27.9938 23.1367 26.941 23.1367C26.2574 23.1367 25.6194 23.0068 25.027 22.7471C24.4345 22.4827 23.9765 22.1227 23.653 21.667C23.3339 21.2113 23.1744 20.694 23.1744 20.1152H24.4938C24.4938 20.7168 24.7148 21.193 25.1569 21.5439C25.6035 21.8903 26.1982 22.0635 26.941 22.0635C27.6337 22.0635 28.1647 21.9222 28.5338 21.6396C28.903 21.3571 29.0875 20.972 29.0875 20.4844C29.0875 19.9967 28.9166 19.6208 28.5748 19.3564C28.233 19.0876 27.6132 18.8232 26.7155 18.5635ZM31.5621 19.2334C31.5621 18.5088 31.7034 17.8571 31.986 17.2783C32.2731 16.6995 32.6696 16.2529 33.1754 15.9385C33.6858 15.624 34.2669 15.4668 34.9186 15.4668C35.9257 15.4668 36.7392 15.8154 37.359 16.5127C37.9834 17.21 38.2955 18.1374 38.2955 19.2949V19.3838C38.2955 20.1038 38.1565 20.751 37.8785 21.3252C37.6051 21.8949 37.2109 22.3392 36.6959 22.6582C36.1855 22.9772 35.5976 23.1367 34.9323 23.1367C33.9296 23.1367 33.1162 22.7881 32.4918 22.0908C31.872 21.3936 31.5621 20.4707 31.5621 19.3223V19.2334ZM32.8336 19.3838C32.8336 20.2041 33.0227 20.8626 33.401 21.3594C33.7838 21.8561 34.2942 22.1045 34.9323 22.1045C35.5748 22.1045 36.0852 21.8538 36.4635 21.3525C36.8418 20.8467 37.0309 20.1403 37.0309 19.2334C37.0309 18.4222 36.8372 17.766 36.4498 17.2646C36.067 16.7588 35.5566 16.5059 34.9186 16.5059C34.2942 16.5059 33.7906 16.7542 33.4078 17.251C33.025 17.7477 32.8336 18.4587 32.8336 19.3838ZM40.5035 23V16.5811H39.3346V15.6035H40.5035V14.8447C40.5035 14.0518 40.7155 13.4388 41.1393 13.0059C41.5631 12.5729 42.1624 12.3564 42.9371 12.3564C43.2288 12.3564 43.5182 12.3952 43.8053 12.4727L43.7369 13.498C43.5227 13.457 43.2949 13.4365 43.0533 13.4365C42.6432 13.4365 42.3265 13.5573 42.1031 13.7988C41.8798 14.0358 41.7682 14.3776 41.7682 14.8242V15.6035H43.3473V16.5811H41.7682V23H40.5035ZM46.4645 13.8125V15.6035H47.8453V16.5811H46.4645V21.168C46.4645 21.4642 46.526 21.6875 46.649 21.8379C46.7721 21.9837 46.9817 22.0566 47.278 22.0566C47.4238 22.0566 47.6243 22.0293 47.8795 21.9746V23C47.5468 23.0911 47.2233 23.1367 46.9088 23.1367C46.3437 23.1367 45.9176 22.9658 45.6305 22.624C45.3434 22.2822 45.1998 21.7969 45.1998 21.168V16.5811H43.8531V15.6035H45.1998V13.8125H46.4645ZM55.8776 21.2568L57.2994 15.6035H58.5641L56.4108 23H55.3854L53.5875 17.3945L51.8375 23H50.8121L48.6656 15.6035H49.9235L51.3795 21.1406L53.1022 15.6035H54.1207L55.8776 21.2568ZM64.4225 23C64.3496 22.8542 64.2903 22.5944 64.2448 22.2207C63.6569 22.8314 62.955 23.1367 62.1393 23.1367C61.4101 23.1367 60.8108 22.9316 60.3414 22.5215C59.8766 22.1068 59.6442 21.5827 59.6442 20.9492C59.6442 20.179 59.9358 19.582 60.5192 19.1582C61.1071 18.7298 61.9319 18.5156 62.9938 18.5156H64.2242V17.9346C64.2242 17.4925 64.0921 17.1416 63.8278 16.8818C63.5634 16.6175 63.1738 16.4854 62.6588 16.4854C62.2076 16.4854 61.8294 16.5993 61.524 16.8271C61.2187 17.055 61.066 17.3307 61.066 17.6543H59.7946C59.7946 17.2852 59.9244 16.9297 60.1842 16.5879C60.4485 16.2415 60.804 15.9681 61.2506 15.7676C61.7018 15.5671 62.1962 15.4668 62.734 15.4668C63.5862 15.4668 64.2539 15.681 64.7369 16.1094C65.22 16.5332 65.4707 17.1188 65.4889 17.8662V21.2705C65.4889 21.9495 65.5755 22.4896 65.7487 22.8906V23H64.4225ZM62.3239 22.0361C62.7203 22.0361 63.0963 21.9336 63.4518 21.7285C63.8073 21.5234 64.0647 21.2568 64.2242 20.9287V19.4111H63.233C61.6836 19.4111 60.9088 19.8646 60.9088 20.7715C60.9088 21.168 61.041 21.4779 61.3053 21.7012C61.5696 21.9245 61.9091 22.0361 62.3239 22.0361ZM71.0465 16.7383C70.8551 16.7064 70.6477 16.6904 70.4244 16.6904C69.595 16.6904 69.0322 17.0436 68.736 17.75V23H67.4713V15.6035H68.7018L68.7223 16.458C69.137 15.7972 69.7249 15.4668 70.486 15.4668C70.7321 15.4668 70.9189 15.4987 71.0465 15.5625V16.7383ZM75.1481 23.1367C74.1455 23.1367 73.3297 22.8086 72.7008 22.1523C72.0719 21.4915 71.7574 20.6097 71.7574 19.5068V19.2744C71.7574 18.5407 71.8964 17.8867 72.1744 17.3125C72.457 16.7337 72.8489 16.2826 73.3502 15.959C73.8561 15.6309 74.403 15.4668 74.9908 15.4668C75.9524 15.4668 76.6998 15.7835 77.233 16.417C77.7662 17.0505 78.0328 17.9574 78.0328 19.1377V19.6641H73.0221C73.0403 20.3932 73.2522 20.9834 73.6578 21.4346C74.068 21.8812 74.5875 22.1045 75.2164 22.1045C75.663 22.1045 76.0413 22.0133 76.3512 21.8311C76.6611 21.6488 76.9323 21.4072 77.1647 21.1064L77.9371 21.708C77.3173 22.6605 76.3877 23.1367 75.1481 23.1367ZM74.9908 16.5059C74.4804 16.5059 74.052 16.6927 73.7057 17.0664C73.3593 17.4355 73.1451 17.9551 73.0631 18.625H76.7682V18.5293C76.7317 17.8867 76.5586 17.39 76.2487 17.0391C75.9388 16.6836 75.5195 16.5059 74.9908 16.5059ZM86.0446 23.1367C85.042 23.1367 84.2262 22.8086 83.5973 22.1523C82.9684 21.4915 82.6539 20.6097 82.6539 19.5068V19.2744C82.6539 18.5407 82.7929 17.8867 83.0709 17.3125C83.3535 16.7337 83.7454 16.2826 84.2467 15.959C84.7526 15.6309 85.2994 15.4668 85.8873 15.4668C86.8489 15.4668 87.5963 15.7835 88.1295 16.417C88.6627 17.0505 88.9293 17.9574 88.9293 19.1377V19.6641H83.9186C83.9368 20.3932 84.1487 20.9834 84.5543 21.4346C84.9645 21.8812 85.484 22.1045 86.1129 22.1045C86.5595 22.1045 86.9378 22.0133 87.2477 21.8311C87.5576 21.6488 87.8287 21.4072 88.0612 21.1064L88.8336 21.708C88.2138 22.6605 87.2841 23.1367 86.0446 23.1367ZM85.8873 16.5059C85.3769 16.5059 84.9485 16.6927 84.6022 17.0664C84.2558 17.4355 84.0416 17.9551 83.9596 18.625H87.6647V18.5293C87.6282 17.8867 87.455 17.39 87.1451 17.0391C86.8352 16.6836 86.416 16.5059 85.8873 16.5059ZM91.5953 15.6035L91.6364 16.5332C92.2015 15.8223 92.9397 15.4668 93.8512 15.4668C95.4143 15.4668 96.2028 16.3486 96.2164 18.1123V23H94.9518V18.1055C94.9472 17.5723 94.8242 17.1781 94.5826 16.9229C94.3457 16.6676 93.9742 16.54 93.4684 16.54C93.0582 16.54 92.6982 16.6494 92.3883 16.8682C92.0784 17.0869 91.8369 17.374 91.6637 17.7295V23H90.399V15.6035H91.5953ZM97.8229 19.2402C97.8229 18.0872 98.0895 17.1712 98.6227 16.4922C99.1559 15.8086 99.8623 15.4668 100.742 15.4668C101.644 15.4668 102.348 15.7858 102.854 16.4238L102.916 15.6035H104.071V22.8223C104.071 23.7793 103.786 24.5335 103.216 25.085C102.651 25.6364 101.89 25.9121 100.933 25.9121C100.4 25.9121 99.8782 25.7982 99.3678 25.5703C98.8574 25.3424 98.4677 25.0303 98.1989 24.6338L98.8551 23.875C99.3974 24.5449 100.061 24.8799 100.844 24.8799C101.46 24.8799 101.938 24.7067 102.28 24.3604C102.626 24.014 102.799 23.5264 102.799 22.8975V22.2617C102.294 22.8451 101.603 23.1367 100.728 23.1367C99.8623 23.1367 99.1604 22.7881 98.6227 22.0908C98.0895 21.3936 97.8229 20.4434 97.8229 19.2402ZM99.0944 19.3838C99.0944 20.2178 99.2653 20.874 99.6071 21.3525C99.9489 21.8265 100.427 22.0635 101.043 22.0635C101.84 22.0635 102.426 21.7012 102.799 20.9766V17.5996C102.412 16.8932 101.831 16.54 101.056 16.54C100.441 16.54 99.9602 16.7793 99.6139 17.2578C99.2675 17.7363 99.0944 18.445 99.0944 19.3838ZM107.359 23H106.094V15.6035H107.359V23ZM105.992 13.6416C105.992 13.4365 106.053 13.2633 106.176 13.1221C106.304 12.9808 106.491 12.9102 106.737 12.9102C106.983 12.9102 107.17 12.9808 107.297 13.1221C107.425 13.2633 107.489 13.4365 107.489 13.6416C107.489 13.8467 107.425 14.0176 107.297 14.1543C107.17 14.291 106.983 14.3594 106.737 14.3594C106.491 14.3594 106.304 14.291 106.176 14.1543C106.053 14.0176 105.992 13.8467 105.992 13.6416ZM110.586 15.6035L110.627 16.5332C111.192 15.8223 111.93 15.4668 112.841 15.4668C114.405 15.4668 115.193 16.3486 115.207 18.1123V23H113.942V18.1055C113.937 17.5723 113.814 17.1781 113.573 16.9229C113.336 16.6676 112.964 16.54 112.459 16.54C112.048 16.54 111.688 16.6494 111.379 16.8682C111.069 17.0869 110.827 17.374 110.654 17.7295V23H109.389V15.6035H110.586ZM120.183 23.1367C119.181 23.1367 118.365 22.8086 117.736 22.1523C117.107 21.4915 116.793 20.6097 116.793 19.5068V19.2744C116.793 18.5407 116.932 17.8867 117.21 17.3125C117.492 16.7337 117.884 16.2826 118.385 15.959C118.891 15.6309 119.438 15.4668 120.026 15.4668C120.988 15.4668 121.735 15.7835 122.268 16.417C122.801 17.0505 123.068 17.9574 123.068 19.1377V19.6641H118.057C118.075 20.3932 118.287 20.9834 118.693 21.4346C119.103 21.8812 119.623 22.1045 120.252 22.1045C120.698 22.1045 121.076 22.0133 121.386 21.8311C121.696 21.6488 121.967 21.4072 122.2 21.1064L122.972 21.708C122.352 22.6605 121.423 23.1367 120.183 23.1367ZM120.026 16.5059C119.516 16.5059 119.087 16.6927 118.741 17.0664C118.394 17.4355 118.18 17.9551 118.098 18.625H121.803V18.5293C121.767 17.8867 121.594 17.39 121.284 17.0391C120.974 16.6836 120.555 16.5059 120.026 16.5059ZM127.607 23.1367C126.604 23.1367 125.789 22.8086 125.16 22.1523C124.531 21.4915 124.216 20.6097 124.216 19.5068V19.2744C124.216 18.5407 124.355 17.8867 124.633 17.3125C124.916 16.7337 125.308 16.2826 125.809 15.959C126.315 15.6309 126.862 15.4668 127.45 15.4668C128.411 15.4668 129.159 15.7835 129.692 16.417C130.225 17.0505 130.492 17.9574 130.492 19.1377V19.6641H125.481C125.499 20.3932 125.711 20.9834 126.117 21.4346C126.527 21.8812 127.047 22.1045 127.675 22.1045C128.122 22.1045 128.5 22.0133 128.81 21.8311C129.12 21.6488 129.391 21.4072 129.624 21.1064L130.396 21.708C129.776 22.6605 128.847 23.1367 127.607 23.1367ZM127.45 16.5059C126.939 16.5059 126.511 16.6927 126.165 17.0664C125.818 17.4355 125.604 17.9551 125.522 18.625H129.227V18.5293C129.191 17.8867 129.018 17.39 128.708 17.0391C128.398 16.6836 127.978 16.5059 127.45 16.5059ZM135.537 16.7383C135.345 16.7064 135.138 16.6904 134.915 16.6904C134.085 16.6904 133.522 17.0436 133.226 17.75V23H131.962V15.6035H133.192L133.213 16.458C133.627 15.7972 134.215 15.4668 134.976 15.4668C135.222 15.4668 135.409 15.4987 135.537 15.5625V16.7383Z" fill="#745F5F"/>
<path d="M228.547 22H227.416L223.121 15.4258V22H221.99V13.4688H223.121L227.428 20.0723V13.4688H228.547V22ZM233.006 22.1172C232.146 22.1172 231.447 21.8359 230.908 21.2734C230.369 20.707 230.1 19.9512 230.1 19.0059V18.8066C230.1 18.1777 230.219 17.6172 230.457 17.125C230.699 16.6289 231.035 16.2422 231.465 15.9648C231.898 15.6836 232.367 15.543 232.871 15.543C233.695 15.543 234.336 15.8145 234.793 16.3574C235.25 16.9004 235.479 17.6777 235.479 18.6895V19.1406H231.184C231.199 19.7656 231.381 20.2715 231.729 20.6582C232.08 21.041 232.525 21.2324 233.064 21.2324C233.447 21.2324 233.771 21.1543 234.037 20.998C234.303 20.8418 234.535 20.6348 234.734 20.377L235.396 20.8926C234.865 21.709 234.068 22.1172 233.006 22.1172ZM232.871 16.4336C232.434 16.4336 232.066 16.5938 231.77 16.9141C231.473 17.2305 231.289 17.6758 231.219 18.25H234.395V18.168C234.363 17.6172 234.215 17.1914 233.949 16.8906C233.684 16.5859 233.324 16.4336 232.871 16.4336ZM242.352 20.5059L243.57 15.6602H244.654L242.809 22H241.93L240.389 17.1953L238.889 22H238.01L236.17 15.6602H237.248L238.496 20.4062L239.973 15.6602H240.846L242.352 20.5059ZM251.51 17.752L253.736 13.4688H255.014L252.072 18.8184V22H250.947V18.8184L248.006 13.4688H249.295L251.51 17.752ZM255.271 18.7715C255.271 18.1504 255.393 17.5918 255.635 17.0957C255.881 16.5996 256.221 16.2168 256.654 15.9473C257.092 15.6777 257.59 15.543 258.148 15.543C259.012 15.543 259.709 15.8418 260.24 16.4395C260.775 17.0371 261.043 17.832 261.043 18.8242V18.9004C261.043 19.5176 260.924 20.0723 260.686 20.5645C260.451 21.0527 260.113 21.4336 259.672 21.707C259.234 21.9805 258.73 22.1172 258.16 22.1172C257.301 22.1172 256.604 21.8184 256.068 21.2207C255.537 20.623 255.271 19.832 255.271 18.8477V18.7715ZM256.361 18.9004C256.361 19.6035 256.523 20.168 256.848 20.5938C257.176 21.0195 257.613 21.2324 258.16 21.2324C258.711 21.2324 259.148 21.0176 259.473 20.5879C259.797 20.1543 259.959 19.5488 259.959 18.7715C259.959 18.0762 259.793 17.5137 259.461 17.084C259.133 16.6504 258.695 16.4336 258.148 16.4336C257.613 16.4336 257.182 16.6465 256.854 17.0723C256.525 17.498 256.361 18.1074 256.361 18.9004ZM265.467 16.6328C265.303 16.6055 265.125 16.5918 264.934 16.5918C264.223 16.5918 263.74 16.8945 263.486 17.5V22H262.402V15.6602H263.457L263.475 16.3926C263.83 15.8262 264.334 15.543 264.986 15.543C265.197 15.543 265.357 15.5703 265.467 15.625V16.6328ZM268.238 19.0645L267.559 19.7734V22H266.475V13H267.559V18.4434L268.139 17.7461L270.113 15.6602H271.432L268.965 18.3086L271.719 22H270.447L268.238 19.0645ZM281.973 19.293C281.867 20.1953 281.533 20.8926 280.971 21.3848C280.412 21.873 279.668 22.1172 278.738 22.1172C277.73 22.1172 276.922 21.7559 276.312 21.0332C275.707 20.3105 275.404 19.3438 275.404 18.1328V17.3125C275.404 16.5195 275.545 15.8223 275.826 15.2207C276.111 14.6191 276.514 14.1582 277.033 13.8379C277.553 13.5137 278.154 13.3516 278.838 13.3516C279.744 13.3516 280.471 13.6055 281.018 14.1133C281.564 14.6172 281.883 15.3164 281.973 16.2109H280.842C280.744 15.5312 280.531 15.0391 280.203 14.7344C279.879 14.4297 279.424 14.2773 278.838 14.2773C278.119 14.2773 277.555 14.543 277.145 15.0742C276.738 15.6055 276.535 16.3613 276.535 17.3418V18.168C276.535 19.0938 276.729 19.8301 277.115 20.377C277.502 20.9238 278.043 21.1973 278.738 21.1973C279.363 21.1973 279.842 21.0566 280.174 20.7754C280.51 20.4902 280.732 19.9961 280.842 19.293H281.973ZM284.521 22H283.438V15.6602H284.521V22ZM283.35 13.9785C283.35 13.8027 283.402 13.6543 283.508 13.5332C283.617 13.4121 283.777 13.3516 283.988 13.3516C284.199 13.3516 284.359 13.4121 284.469 13.5332C284.578 13.6543 284.633 13.8027 284.633 13.9785C284.633 14.1543 284.578 14.3008 284.469 14.418C284.359 14.5352 284.199 14.5938 283.988 14.5938C283.777 14.5938 283.617 14.5352 283.508 14.418C283.402 14.3008 283.35 14.1543 283.35 13.9785ZM287.732 14.125V15.6602H288.916V16.498H287.732V20.4297C287.732 20.6836 287.785 20.875 287.891 21.0039C287.996 21.1289 288.176 21.1914 288.43 21.1914C288.555 21.1914 288.727 21.168 288.945 21.1211V22C288.66 22.0781 288.383 22.1172 288.113 22.1172C287.629 22.1172 287.264 21.9707 287.018 21.6777C286.771 21.3848 286.648 20.9688 286.648 20.4297V16.498H285.494V15.6602H286.648V14.125H287.732ZM292.262 20.4121L293.738 15.6602H294.898L292.35 22.9785C291.955 24.0332 291.328 24.5605 290.469 24.5605L290.264 24.543L289.859 24.4668V23.5879L290.152 23.6113C290.52 23.6113 290.805 23.5371 291.008 23.3887C291.215 23.2402 291.385 22.9688 291.518 22.5742L291.758 21.9297L289.496 15.6602H290.68L292.262 20.4121Z" fill="#745F5F"/>
<path d="M324.812 18.0566H321.115V21.0801H325.41V22H319.99V13.4688H325.352V14.3945H321.115V17.1367H324.812V18.0566ZM327.666 15.6602L327.701 16.457C328.186 15.8477 328.818 15.543 329.6 15.543C330.939 15.543 331.615 16.2988 331.627 17.8105V22H330.543V17.8047C330.539 17.3477 330.434 17.0098 330.227 16.791C330.023 16.5723 329.705 16.4629 329.271 16.4629C328.92 16.4629 328.611 16.5566 328.346 16.7441C328.08 16.9316 327.873 17.1777 327.725 17.4824V22H326.641V15.6602H327.666ZM334.732 14.125V15.6602H335.916V16.498H334.732V20.4297C334.732 20.6836 334.785 20.875 334.891 21.0039C334.996 21.1289 335.176 21.1914 335.43 21.1914C335.555 21.1914 335.727 21.168 335.945 21.1211V22C335.66 22.0781 335.383 22.1172 335.113 22.1172C334.629 22.1172 334.264 21.9707 334.018 21.6777C333.771 21.3848 333.648 20.9688 333.648 20.4297V16.498H332.494V15.6602H333.648V14.125H334.732ZM340.252 16.6328C340.088 16.6055 339.91 16.5918 339.719 16.5918C339.008 16.5918 338.525 16.8945 338.271 17.5V22H337.188V15.6602H338.242L338.26 16.3926C338.615 15.8262 339.119 15.543 339.771 15.543C339.982 15.543 340.143 15.5703 340.252 15.625V16.6328ZM343.434 20.4121L344.91 15.6602H346.07L343.521 22.9785C343.127 24.0332 342.5 24.5605 341.641 24.5605L341.436 24.543L341.031 24.4668V23.5879L341.324 23.6113C341.691 23.6113 341.977 23.5371 342.18 23.3887C342.387 23.2402 342.557 22.9688 342.689 22.5742L342.93 21.9297L340.668 15.6602H341.852L343.434 20.4121ZM351.32 21.0801H355.363V22H350.189V13.4688H351.32V21.0801ZM359.107 22.1172C358.248 22.1172 357.549 21.8359 357.01 21.2734C356.471 20.707 356.201 19.9512 356.201 19.0059V18.8066C356.201 18.1777 356.32 17.6172 356.559 17.125C356.801 16.6289 357.137 16.2422 357.566 15.9648C358 15.6836 358.469 15.543 358.973 15.543C359.797 15.543 360.438 15.8145 360.895 16.3574C361.352 16.9004 361.58 17.6777 361.58 18.6895V19.1406H357.285C357.301 19.7656 357.482 20.2715 357.83 20.6582C358.182 21.041 358.627 21.2324 359.166 21.2324C359.549 21.2324 359.873 21.1543 360.139 20.998C360.404 20.8418 360.637 20.6348 360.836 20.377L361.498 20.8926C360.967 21.709 360.17 22.1172 359.107 22.1172ZM358.973 16.4336C358.535 16.4336 358.168 16.5938 357.871 16.9141C357.574 17.2305 357.391 17.6758 357.32 18.25H360.496V18.168C360.465 17.6172 360.316 17.1914 360.051 16.8906C359.785 16.5859 359.426 16.4336 358.973 16.4336ZM364.85 20.5293L366.42 15.6602H367.527L365.254 22H364.428L362.131 15.6602H363.238L364.85 20.5293ZM371.119 22.1172C370.26 22.1172 369.561 21.8359 369.021 21.2734C368.482 20.707 368.213 19.9512 368.213 19.0059V18.8066C368.213 18.1777 368.332 17.6172 368.57 17.125C368.812 16.6289 369.148 16.2422 369.578 15.9648C370.012 15.6836 370.48 15.543 370.984 15.543C371.809 15.543 372.449 15.8145 372.906 16.3574C373.363 16.9004 373.592 17.6777 373.592 18.6895V19.1406H369.297C369.312 19.7656 369.494 20.2715 369.842 20.6582C370.193 21.041 370.639 21.2324 371.178 21.2324C371.561 21.2324 371.885 21.1543 372.15 20.998C372.416 20.8418 372.648 20.6348 372.848 20.377L373.51 20.8926C372.979 21.709 372.182 22.1172 371.119 22.1172ZM370.984 16.4336C370.547 16.4336 370.18 16.5938 369.883 16.9141C369.586 17.2305 369.402 17.6758 369.332 18.25H372.508V18.168C372.477 17.6172 372.328 17.1914 372.062 16.8906C371.797 16.5859 371.438 16.4336 370.984 16.4336ZM376.029 22H374.945V13H376.029V22Z" fill="#745F5F"/>
<path d="M397.115 18.6602V22H395.99V13.4688H399.137C400.07 13.4688 400.801 13.707 401.328 14.1836C401.859 14.6602 402.125 15.291 402.125 16.0762C402.125 16.9043 401.865 17.543 401.346 17.9922C400.83 18.4375 400.09 18.6602 399.125 18.6602H397.115ZM397.115 17.7402H399.137C399.738 17.7402 400.199 17.5996 400.52 17.3184C400.84 17.0332 401 16.623 401 16.0879C401 15.5801 400.84 15.1738 400.52 14.8691C400.199 14.5645 399.76 14.4062 399.201 14.3945H397.115V17.7402ZM407.234 22C407.172 21.875 407.121 21.6523 407.082 21.332C406.578 21.8555 405.977 22.1172 405.277 22.1172C404.652 22.1172 404.139 21.9414 403.736 21.5898C403.338 21.2344 403.139 20.7852 403.139 20.2422C403.139 19.582 403.389 19.0703 403.889 18.707C404.393 18.3398 405.1 18.1562 406.01 18.1562H407.064V17.6582C407.064 17.2793 406.951 16.9785 406.725 16.7559C406.498 16.5293 406.164 16.416 405.723 16.416C405.336 16.416 405.012 16.5137 404.75 16.709C404.488 16.9043 404.357 17.1406 404.357 17.418H403.268C403.268 17.1016 403.379 16.7969 403.602 16.5039C403.828 16.207 404.133 15.9727 404.516 15.8008C404.902 15.6289 405.326 15.543 405.787 15.543C406.518 15.543 407.09 15.7266 407.504 16.0938C407.918 16.457 408.133 16.959 408.148 17.5996V20.5176C408.148 21.0996 408.223 21.5625 408.371 21.9062V22H407.234ZM405.436 21.1738C405.775 21.1738 406.098 21.0859 406.402 20.9102C406.707 20.7344 406.928 20.5059 407.064 20.2246V18.9238H406.215C404.887 18.9238 404.223 19.3125 404.223 20.0898C404.223 20.4297 404.336 20.6953 404.562 20.8867C404.789 21.0781 405.08 21.1738 405.436 21.1738ZM413.539 20.3184C413.539 20.0254 413.428 19.7988 413.205 19.6387C412.986 19.4746 412.602 19.334 412.051 19.2168C411.504 19.0996 411.068 18.959 410.744 18.7949C410.424 18.6309 410.186 18.4355 410.029 18.209C409.877 17.9824 409.801 17.7129 409.801 17.4004C409.801 16.8809 410.02 16.4414 410.457 16.082C410.898 15.7227 411.461 15.543 412.145 15.543C412.863 15.543 413.445 15.7285 413.891 16.0996C414.34 16.4707 414.564 16.9453 414.564 17.5234H413.475C413.475 17.2266 413.348 16.9707 413.094 16.7559C412.844 16.541 412.527 16.4336 412.145 16.4336C411.75 16.4336 411.441 16.5195 411.219 16.6914C410.996 16.8633 410.885 17.0879 410.885 17.3652C410.885 17.627 410.988 17.8242 411.195 17.957C411.402 18.0898 411.775 18.2168 412.314 18.3379C412.857 18.459 413.297 18.6035 413.633 18.7715C413.969 18.9395 414.217 19.1426 414.377 19.3809C414.541 19.6152 414.623 19.9023 414.623 20.2422C414.623 20.8086 414.396 21.2637 413.943 21.6074C413.49 21.9473 412.902 22.1172 412.18 22.1172C411.672 22.1172 411.223 22.0273 410.832 21.8477C410.441 21.668 410.135 21.418 409.912 21.0977C409.693 20.7734 409.584 20.4238 409.584 20.0488H410.668C410.688 20.4121 410.832 20.7012 411.102 20.916C411.375 21.127 411.734 21.2324 412.18 21.2324C412.59 21.2324 412.918 21.1504 413.164 20.9863C413.414 20.8184 413.539 20.5957 413.539 20.3184ZM417.506 14.125V15.6602H418.689V16.498H417.506V20.4297C417.506 20.6836 417.559 20.875 417.664 21.0039C417.77 21.1289 417.949 21.1914 418.203 21.1914C418.328 21.1914 418.5 21.168 418.719 21.1211V22C418.434 22.0781 418.156 22.1172 417.887 22.1172C417.402 22.1172 417.037 21.9707 416.791 21.6777C416.545 21.3848 416.422 20.9688 416.422 20.4297V16.498H415.268V15.6602H416.422V14.125H417.506ZM424.402 17.207H425.217C425.729 17.1992 426.131 17.0645 426.424 16.8027C426.717 16.541 426.863 16.1875 426.863 15.7422C426.863 14.7422 426.365 14.2422 425.369 14.2422C424.9 14.2422 424.525 14.377 424.244 14.6465C423.967 14.9121 423.828 15.2656 423.828 15.707H422.744C422.744 15.0312 422.99 14.4707 423.482 14.0254C423.979 13.5762 424.607 13.3516 425.369 13.3516C426.174 13.3516 426.805 13.5645 427.262 13.9902C427.719 14.416 427.947 15.0078 427.947 15.7656C427.947 16.1367 427.826 16.4961 427.584 16.8438C427.346 17.1914 427.02 17.4512 426.605 17.623C427.074 17.7715 427.436 18.0176 427.689 18.3613C427.947 18.7051 428.076 19.125 428.076 19.6211C428.076 20.3867 427.826 20.9941 427.326 21.4434C426.826 21.8926 426.176 22.1172 425.375 22.1172C424.574 22.1172 423.922 21.9004 423.418 21.4668C422.918 21.0332 422.668 20.4609 422.668 19.75H423.758C423.758 20.1992 423.904 20.5586 424.197 20.8281C424.49 21.0977 424.883 21.2324 425.375 21.2324C425.898 21.2324 426.299 21.0957 426.576 20.8223C426.854 20.5488 426.992 20.1562 426.992 19.6445C426.992 19.1484 426.84 18.7676 426.535 18.502C426.23 18.2363 425.791 18.0996 425.217 18.0918H424.402V17.207ZM432.389 18.7773C432.389 17.8047 432.619 17.0234 433.08 16.4336C433.541 15.8398 434.145 15.543 434.891 15.543C435.633 15.543 436.221 15.7969 436.654 16.3047V13H437.738V22H436.742L436.689 21.3203C436.256 21.8516 435.652 22.1172 434.879 22.1172C434.145 22.1172 433.545 21.8164 433.08 21.2148C432.619 20.6133 432.389 19.8281 432.389 18.8594V18.7773ZM433.473 18.9004C433.473 19.6191 433.621 20.1816 433.918 20.5879C434.215 20.9941 434.625 21.1973 435.148 21.1973C435.836 21.1973 436.338 20.8887 436.654 20.2715V17.3594C436.33 16.7617 435.832 16.4629 435.16 16.4629C434.629 16.4629 434.215 16.668 433.918 17.0781C433.621 17.4883 433.473 18.0957 433.473 18.9004ZM443.34 22C443.277 21.875 443.227 21.6523 443.188 21.332C442.684 21.8555 442.082 22.1172 441.383 22.1172C440.758 22.1172 440.244 21.9414 439.842 21.5898C439.443 21.2344 439.244 20.7852 439.244 20.2422C439.244 19.582 439.494 19.0703 439.994 18.707C440.498 18.3398 441.205 18.1562 442.115 18.1562H443.17V17.6582C443.17 17.2793 443.057 16.9785 442.83 16.7559C442.604 16.5293 442.27 16.416 441.828 16.416C441.441 16.416 441.117 16.5137 440.855 16.709C440.594 16.9043 440.463 17.1406 440.463 17.418H439.373C439.373 17.1016 439.484 16.7969 439.707 16.5039C439.934 16.207 440.238 15.9727 440.621 15.8008C441.008 15.6289 441.432 15.543 441.893 15.543C442.623 15.543 443.195 15.7266 443.609 16.0938C444.023 16.457 444.238 16.959 444.254 17.5996V20.5176C444.254 21.0996 444.328 21.5625 444.477 21.9062V22H443.34ZM441.541 21.1738C441.881 21.1738 442.203 21.0859 442.508 20.9102C442.812 20.7344 443.033 20.5059 443.17 20.2246V18.9238H442.32C440.992 18.9238 440.328 19.3125 440.328 20.0898C440.328 20.4297 440.441 20.6953 440.668 20.8867C440.895 21.0781 441.186 21.1738 441.541 21.1738ZM447.934 20.4121L449.41 15.6602H450.57L448.021 22.9785C447.627 24.0332 447 24.5605 446.141 24.5605L445.936 24.543L445.531 24.4668V23.5879L445.824 23.6113C446.191 23.6113 446.477 23.5371 446.68 23.3887C446.887 23.2402 447.057 22.9688 447.189 22.5742L447.43 21.9297L445.168 15.6602H446.352L447.934 20.4121ZM455.234 20.3184C455.234 20.0254 455.123 19.7988 454.9 19.6387C454.682 19.4746 454.297 19.334 453.746 19.2168C453.199 19.0996 452.764 18.959 452.439 18.7949C452.119 18.6309 451.881 18.4355 451.725 18.209C451.572 17.9824 451.496 17.7129 451.496 17.4004C451.496 16.8809 451.715 16.4414 452.152 16.082C452.594 15.7227 453.156 15.543 453.84 15.543C454.559 15.543 455.141 15.7285 455.586 16.0996C456.035 16.4707 456.26 16.9453 456.26 17.5234H455.17C455.17 17.2266 455.043 16.9707 454.789 16.7559C454.539 16.541 454.223 16.4336 453.84 16.4336C453.445 16.4336 453.137 16.5195 452.914 16.6914C452.691 16.8633 452.58 17.0879 452.58 17.3652C452.58 17.627 452.684 17.8242 452.891 17.957C453.098 18.0898 453.471 18.2168 454.01 18.3379C454.553 18.459 454.992 18.6035 455.328 18.7715C455.664 18.9395 455.912 19.1426 456.072 19.3809C456.236 19.6152 456.318 19.9023 456.318 20.2422C456.318 20.8086 456.092 21.2637 455.639 21.6074C455.186 21.9473 454.598 22.1172 453.875 22.1172C453.367 22.1172 452.918 22.0273 452.527 21.8477C452.137 21.668 451.83 21.418 451.607 21.0977C451.389 20.7734 451.279 20.4238 451.279 20.0488H452.363C452.383 20.4121 452.527 20.7012 452.797 20.916C453.07 21.127 453.43 21.2324 453.875 21.2324C454.285 21.2324 454.613 21.1504 454.859 20.9863C455.109 20.8184 455.234 20.5957 455.234 20.3184Z" fill="#745F5F"/>
<line x1="204.5" y1="6" x2="204.5" y2="33" stroke="#B1B1B1"/>
<path d="M308 5V32" stroke="#B1B1B1"/>
<path d="M386 6V33" stroke="#B1B1B1"/>
<path d="M468 5V32" stroke="#B1B1B1"/>
<rect x="492.42" y="4" width="72.1928" height="29" rx="14.5" fill="#FE9696"/>
<path d="M515.186 20.7617C515.186 20.4297 515.068 20.1758 514.834 20C514.6 19.8203 514.178 19.6328 513.568 19.4375C512.959 19.2383 512.477 19.043 512.121 18.8516C511.152 18.3281 510.668 17.623 510.668 16.7363C510.668 16.2754 510.797 15.8652 511.055 15.5059C511.316 15.1426 511.689 14.8594 512.174 14.6562C512.662 14.4531 513.209 14.3516 513.814 14.3516C514.424 14.3516 514.967 14.4629 515.443 14.6855C515.92 14.9043 516.289 15.2148 516.551 15.6172C516.816 16.0195 516.949 16.4766 516.949 16.9883H515.191C515.191 16.5977 515.068 16.2949 514.822 16.0801C514.576 15.8613 514.23 15.752 513.785 15.752C513.355 15.752 513.021 15.8438 512.783 16.0273C512.545 16.207 512.426 16.4453 512.426 16.7422C512.426 17.0195 512.564 17.252 512.842 17.4395C513.123 17.627 513.535 17.8027 514.078 17.9668C515.078 18.2676 515.807 18.6406 516.264 19.0859C516.721 19.5312 516.949 20.0859 516.949 20.75C516.949 21.4883 516.67 22.0684 516.111 22.4902C515.553 22.9082 514.801 23.1172 513.855 23.1172C513.199 23.1172 512.602 22.998 512.062 22.7598C511.523 22.5176 511.111 22.1875 510.826 21.7695C510.545 21.3516 510.404 20.8672 510.404 20.3164H512.168C512.168 21.2578 512.73 21.7285 513.855 21.7285C514.273 21.7285 514.6 21.6445 514.834 21.4766C515.068 21.3047 515.186 21.0664 515.186 20.7617ZM520.951 23.1172C520.021 23.1172 519.264 22.832 518.678 22.2617C518.096 21.6914 517.805 20.9316 517.805 19.9824V19.8184C517.805 19.1816 517.928 18.6133 518.174 18.1133C518.42 17.6094 518.768 17.2227 519.217 16.9531C519.67 16.6797 520.186 16.543 520.764 16.543C521.631 16.543 522.312 16.8164 522.809 17.3633C523.309 17.9102 523.559 18.6855 523.559 19.6895V20.3809H519.521C519.576 20.7949 519.74 21.127 520.014 21.377C520.291 21.627 520.641 21.752 521.062 21.752C521.715 21.752 522.225 21.5156 522.592 21.043L523.424 21.9746C523.17 22.334 522.826 22.6152 522.393 22.8184C521.959 23.0176 521.479 23.1172 520.951 23.1172ZM520.758 17.9141C520.422 17.9141 520.148 18.0273 519.938 18.2539C519.73 18.4805 519.598 18.8047 519.539 19.2266H521.895V19.0918C521.887 18.7168 521.785 18.4277 521.59 18.2246C521.395 18.0176 521.117 17.9141 520.758 17.9141ZM528.199 23C528.121 22.8477 528.064 22.6582 528.029 22.4316C527.619 22.8887 527.086 23.1172 526.43 23.1172C525.809 23.1172 525.293 22.9375 524.883 22.5781C524.477 22.2188 524.273 21.7656 524.273 21.2188C524.273 20.5469 524.521 20.0312 525.018 19.6719C525.518 19.3125 526.238 19.1309 527.18 19.127H527.959V18.7637C527.959 18.4707 527.883 18.2363 527.73 18.0605C527.582 17.8848 527.346 17.7969 527.021 17.7969C526.736 17.7969 526.512 17.8652 526.348 18.002C526.188 18.1387 526.107 18.3262 526.107 18.5645H524.414C524.414 18.1973 524.527 17.8574 524.754 17.5449C524.98 17.2324 525.301 16.9883 525.715 16.8125C526.129 16.6328 526.594 16.543 527.109 16.543C527.891 16.543 528.51 16.7402 528.967 17.1348C529.428 17.5254 529.658 18.0762 529.658 18.7871V21.5352C529.662 22.1367 529.746 22.5918 529.91 22.9004V23H528.199ZM526.799 21.8223C527.049 21.8223 527.279 21.7676 527.49 21.6582C527.701 21.5449 527.857 21.3945 527.959 21.207V20.1172H527.326C526.479 20.1172 526.027 20.4102 525.973 20.9961L525.967 21.0957C525.967 21.3066 526.041 21.4805 526.189 21.6172C526.338 21.7539 526.541 21.8223 526.799 21.8223ZM534.521 18.248C534.291 18.2168 534.088 18.2012 533.912 18.2012C533.271 18.2012 532.852 18.418 532.652 18.8516V23H530.959V16.6602H532.559L532.605 17.416C532.945 16.834 533.416 16.543 534.018 16.543C534.205 16.543 534.381 16.5684 534.545 16.6191L534.521 18.248ZM537.861 21.752C538.174 21.752 538.428 21.666 538.623 21.4941C538.818 21.3223 538.92 21.0938 538.928 20.8086H540.516C540.512 21.2383 540.395 21.6328 540.164 21.9922C539.934 22.3477 539.617 22.625 539.215 22.8242C538.816 23.0195 538.375 23.1172 537.891 23.1172C536.984 23.1172 536.27 22.8301 535.746 22.2559C535.223 21.6777 534.961 20.8809 534.961 19.8652V19.7539C534.961 18.7773 535.221 17.998 535.74 17.416C536.26 16.834 536.973 16.543 537.879 16.543C538.672 16.543 539.307 16.7695 539.783 17.2227C540.264 17.6719 540.508 18.2715 540.516 19.0215H538.928C538.92 18.6934 538.818 18.4277 538.623 18.2246C538.428 18.0176 538.17 17.9141 537.85 17.9141C537.455 17.9141 537.156 18.0586 536.953 18.3477C536.754 18.6328 536.654 19.0977 536.654 19.7422V19.918C536.654 20.5703 536.754 21.0391 536.953 21.3242C537.152 21.6094 537.455 21.752 537.861 21.752ZM543.135 17.3516C543.584 16.8125 544.148 16.543 544.828 16.543C546.203 16.543 546.9 17.3418 546.92 18.9395V23H545.227V18.9863C545.227 18.623 545.148 18.3555 544.992 18.1836C544.836 18.0078 544.576 17.9199 544.213 17.9199C543.717 17.9199 543.357 18.1113 543.135 18.4941V23H541.441V14H543.135V17.3516Z" fill="#ECD5D5"/>
</svg>
