<svg width="345" height="108" viewBox="0 0 345 108" fill="none" xmlns="http://www.w3.org/2000/svg">
<path d="M133.438 51.875H139.344V75.8047C139.344 79.0703 138.32 81.6641 136.273 83.5859C134.242 85.5078 131.555 86.4688 128.211 86.4688C124.648 86.4688 121.898 85.5703 119.961 83.7734C118.023 81.9766 117.055 79.4766 117.055 76.2734H122.961C122.961 78.0859 123.406 79.4531 124.297 80.375C125.203 81.2812 126.508 81.7344 128.211 81.7344C129.805 81.7344 131.07 81.2109 132.008 80.1641C132.961 79.1016 133.438 77.6406 133.438 75.7812V51.875ZM144.523 73.0859C144.523 70.6016 145.016 68.3672 146 66.3828C146.984 64.3828 148.367 62.8516 150.148 61.7891C151.93 60.7109 153.977 60.1719 156.289 60.1719C159.711 60.1719 162.484 61.2734 164.609 63.4766C166.75 65.6797 167.906 68.6016 168.078 72.2422L168.102 73.5781C168.102 76.0781 167.617 78.3125 166.648 80.2812C165.695 82.25 164.32 83.7734 162.523 84.8516C160.742 85.9297 158.68 86.4688 156.336 86.4688C152.758 86.4688 149.891 85.2812 147.734 82.9062C145.594 80.5156 144.523 77.3359 144.523 73.3672V73.0859ZM150.219 73.5781C150.219 76.1875 150.758 78.2344 151.836 79.7188C152.914 81.1875 154.414 81.9219 156.336 81.9219C158.258 81.9219 159.75 81.1719 160.812 79.6719C161.891 78.1719 162.43 75.9766 162.43 73.0859C162.43 70.5234 161.875 68.4922 160.766 66.9922C159.672 65.4922 158.18 64.7422 156.289 64.7422C154.43 64.7422 152.953 65.4844 151.859 66.9688C150.766 68.4375 150.219 70.6406 150.219 73.5781ZM195.172 73.5781C195.172 77.5156 194.289 80.6484 192.523 82.9766C190.773 85.3047 188.359 86.4688 185.281 86.4688C182.312 86.4688 180 85.3984 178.344 83.2578L178.062 86H172.906V50H178.602V63.0781C180.242 61.1406 182.453 60.1719 185.234 60.1719C188.328 60.1719 190.758 61.3203 192.523 63.6172C194.289 65.9141 195.172 69.125 195.172 73.25V73.5781ZM189.477 73.0859C189.477 70.3359 188.992 68.2734 188.023 66.8984C187.055 65.5234 185.648 64.8359 183.805 64.8359C181.336 64.8359 179.602 65.9141 178.602 68.0703V78.5234C179.617 80.7266 181.367 81.8281 183.852 81.8281C185.633 81.8281 187.008 81.1641 187.977 79.8359C188.945 78.5078 189.445 76.5 189.477 73.8125V73.0859ZM231.57 78.0547H218.352L215.586 86H209.422L222.312 51.875H227.633L240.547 86H234.359L231.57 78.0547ZM220.016 73.2734H229.906L224.961 59.1172L220.016 73.2734ZM258.102 79.1094C258.102 78.0938 257.68 77.3203 256.836 76.7891C256.008 76.2578 254.625 75.7891 252.688 75.3828C250.75 74.9766 249.133 74.4609 247.836 73.8359C244.992 72.4609 243.57 70.4688 243.57 67.8594C243.57 65.6719 244.492 63.8438 246.336 62.375C248.18 60.9062 250.523 60.1719 253.367 60.1719C256.398 60.1719 258.844 60.9219 260.703 62.4219C262.578 63.9219 263.516 65.8672 263.516 68.2578H257.82C257.82 67.1641 257.414 66.2578 256.602 65.5391C255.789 64.8047 254.711 64.4375 253.367 64.4375C252.117 64.4375 251.094 64.7266 250.297 65.3047C249.516 65.8828 249.125 66.6562 249.125 67.625C249.125 68.5 249.492 69.1797 250.227 69.6641C250.961 70.1484 252.445 70.6406 254.68 71.1406C256.914 71.625 258.664 72.2109 259.93 72.8984C261.211 73.5703 262.156 74.3828 262.766 75.3359C263.391 76.2891 263.703 77.4453 263.703 78.8047C263.703 81.0859 262.758 82.9375 260.867 84.3594C258.977 85.7656 256.5 86.4688 253.438 86.4688C251.359 86.4688 249.508 86.0938 247.883 85.3438C246.258 84.5938 244.992 83.5625 244.086 82.25C243.18 80.9375 242.727 79.5234 242.727 78.0078H248.258C248.336 79.3516 248.844 80.3906 249.781 81.125C250.719 81.8438 251.961 82.2031 253.508 82.2031C255.008 82.2031 256.148 81.9219 256.93 81.3594C257.711 80.7812 258.102 80.0312 258.102 79.1094ZM282.898 79.1094C282.898 78.0938 282.477 77.3203 281.633 76.7891C280.805 76.2578 279.422 75.7891 277.484 75.3828C275.547 74.9766 273.93 74.4609 272.633 73.8359C269.789 72.4609 268.367 70.4688 268.367 67.8594C268.367 65.6719 269.289 63.8438 271.133 62.375C272.977 60.9062 275.32 60.1719 278.164 60.1719C281.195 60.1719 283.641 60.9219 285.5 62.4219C287.375 63.9219 288.312 65.8672 288.312 68.2578H282.617C282.617 67.1641 282.211 66.2578 281.398 65.5391C280.586 64.8047 279.508 64.4375 278.164 64.4375C276.914 64.4375 275.891 64.7266 275.094 65.3047C274.312 65.8828 273.922 66.6562 273.922 67.625C273.922 68.5 274.289 69.1797 275.023 69.6641C275.758 70.1484 277.242 70.6406 279.477 71.1406C281.711 71.625 283.461 72.2109 284.727 72.8984C286.008 73.5703 286.953 74.3828 287.562 75.3359C288.188 76.2891 288.5 77.4453 288.5 78.8047C288.5 81.0859 287.555 82.9375 285.664 84.3594C283.773 85.7656 281.297 86.4688 278.234 86.4688C276.156 86.4688 274.305 86.0938 272.68 85.3438C271.055 84.5938 269.789 83.5625 268.883 82.25C267.977 80.9375 267.523 79.5234 267.523 78.0078H273.055C273.133 79.3516 273.641 80.3906 274.578 81.125C275.516 81.8438 276.758 82.2031 278.305 82.2031C279.805 82.2031 280.945 81.9219 281.727 81.3594C282.508 80.7812 282.898 80.0312 282.898 79.1094ZM299.539 86H293.844V60.6406H299.539V86ZM293.492 54.0547C293.492 53.1797 293.766 52.4531 294.312 51.875C294.875 51.2969 295.672 51.0078 296.703 51.0078C297.734 51.0078 298.531 51.2969 299.094 51.875C299.656 52.4531 299.938 53.1797 299.938 54.0547C299.938 54.9141 299.656 55.6328 299.094 56.2109C298.531 56.7734 297.734 57.0547 296.703 57.0547C295.672 57.0547 294.875 56.7734 294.312 56.2109C293.766 55.6328 293.492 54.9141 293.492 54.0547ZM319.977 79.1094C319.977 78.0938 319.555 77.3203 318.711 76.7891C317.883 76.2578 316.5 75.7891 314.562 75.3828C312.625 74.9766 311.008 74.4609 309.711 73.8359C306.867 72.4609 305.445 70.4688 305.445 67.8594C305.445 65.6719 306.367 63.8438 308.211 62.375C310.055 60.9062 312.398 60.1719 315.242 60.1719C318.273 60.1719 320.719 60.9219 322.578 62.4219C324.453 63.9219 325.391 65.8672 325.391 68.2578H319.695C319.695 67.1641 319.289 66.2578 318.477 65.5391C317.664 64.8047 316.586 64.4375 315.242 64.4375C313.992 64.4375 312.969 64.7266 312.172 65.3047C311.391 65.8828 311 66.6562 311 67.625C311 68.5 311.367 69.1797 312.102 69.6641C312.836 70.1484 314.32 70.6406 316.555 71.1406C318.789 71.625 320.539 72.2109 321.805 72.8984C323.086 73.5703 324.031 74.3828 324.641 75.3359C325.266 76.2891 325.578 77.4453 325.578 78.8047C325.578 81.0859 324.633 82.9375 322.742 84.3594C320.852 85.7656 318.375 86.4688 315.312 86.4688C313.234 86.4688 311.383 86.0938 309.758 85.3438C308.133 84.5938 306.867 83.5625 305.961 82.25C305.055 80.9375 304.602 79.5234 304.602 78.0078H310.133C310.211 79.3516 310.719 80.3906 311.656 81.125C312.594 81.8438 313.836 82.2031 315.383 82.2031C316.883 82.2031 318.023 81.9219 318.805 81.3594C319.586 80.7812 319.977 80.0312 319.977 79.1094ZM337.695 54.4766V60.6406H342.172V64.8594H337.695V79.0156C337.695 79.9844 337.883 80.6875 338.258 81.125C338.648 81.5469 339.336 81.7578 340.32 81.7578C340.977 81.7578 341.641 81.6797 342.312 81.5234V85.9297C341.016 86.2891 339.766 86.4688 338.562 86.4688C334.188 86.4688 332 84.0547 332 79.2266V64.8594H327.828V60.6406H332V54.4766H337.695Z" fill="#E1DBDB"/>
<path d="M0.0126953 103.033L344 105.26" stroke="#E1DBDB"/>
<circle cx="61" cy="14" r="14" fill="#E1DBDB"/>
<rect x="61.6725" y="22" width="7" height="45" fill="#E1DBDB"/>
<rect x="61.666" y="64" width="7" height="40.9246" transform="rotate(21 61.666 64)" fill="#E1DBDB"/>
<rect x="61" y="66.5085" width="7" height="40.9246" transform="rotate(-21 61 66.5085)" fill="#E1DBDB"/>
<rect x="63" y="35.8723" width="5.22452" height="29.6075" transform="rotate(-21 63 35.8723)" fill="#E1DBDB"/>
<rect x="62.6104" y="37" width="5.22452" height="29.6075" transform="rotate(21 62.6104 37)" fill="#E1DBDB"/>
<rect x="63" y="66.4561" width="26.3867" height="20.5735" transform="rotate(-21 63 66.4561)" fill="#E1DBDB"/>
</svg>
